# 3ds Max Wavefront OBJ Exporter v0.97b - (c)2007 guruware
# File Created: 22.02.2020 01:32:46

mtllib Rock_3.mtl

#
# object Rock_3
#

v  36.1790 17.6725 15.5663
v  34.3358 18.9465 13.7124
v  32.7258 18.3966 25.2100
v  33.0527 9.6195 25.1392
v  32.0725 6.3023 24.9821
v  35.1034 7.3146 12.4501
v  22.3810 10.5740 25.2216
v  16.4273 11.6872 24.1110
v  15.4967 6.1284 24.5709
v  30.8642 17.2346 25.9476
v  25.1476 18.1927 23.0155
v  26.0228 4.7247 26.9638
v  27.2108 -0.9092 22.9853
v  19.1910 -2.1200 23.9045
v  10.1514 4.4223 24.9959
v  12.0480 -2.2870 24.1482
v  19.1142 16.5113 24.0484
v  34.1744 16.2635 25.5379
v  2.0238 4.3754 21.2782
v  15.7380 19.7399 21.5264
v  13.7093 -9.6565 23.0903
v  9.3171 -8.8953 23.0669
v  -0.6971 -12.7164 23.1595
v  7.0776 -18.0106 21.3242
v  0.8399 16.1121 18.5641
v  37.1377 15.6281 16.6193
v  -3.4392 -11.0595 17.2828
v  -9.6699 -17.5370 20.3721
v  -3.1670 6.9259 17.1730
v  19.6990 -7.8839 14.2835
v  12.4341 -19.3351 17.2005
v  22.8761 18.7268 6.8417
v  -5.1505 -7.3158 17.0964
v  29.4891 1.0297 13.3782
v  -12.2595 -14.1332 19.5516
v  30.6143 18.9402 12.7427
v  23.1637 -0.0368 12.7624
v  -3.6657 -19.6465 14.0678
v  3.1608 19.4775 17.2944
v  -15.0579 3.5361 16.1062
v  -16.4535 -1.8171 15.3816
v  11.2553 19.9305 17.3954
v  -13.7130 -18.8050 10.6711
v  -20.5282 -12.8878 13.5812
v  14.8279 20.2304 5.6380
v  -8.2704 16.5247 14.6477
v  37.4614 10.8531 6.7945
v  -25.9294 -8.8726 13.3711
v  -20.2371 -17.7656 12.6374
v  -9.0394 18.3346 11.7510
v  -16.2368 11.2331 11.3571
v  -20.9247 4.4292 10.4337
v  32.9114 18.7673 0.1365
v  -26.1798 1.1061 13.9685
v  1.3938 -21.0757 6.7273
v  -30.3972 -2.0515 13.4868
v  -36.5878 -4.4200 11.6906
v  -35.7988 -5.1595 12.7850
v  19.0048 19.1953 4.3291
v  -37.6195 -8.5976 12.2959
v  17.6671 -19.8045 7.9833
v  -35.6163 -16.4029 11.6569
v  12.9728 -21.1585 6.6337
v  -27.6281 1.7477 12.7380
v  -37.4247 -13.7488 11.8318
v  24.9474 -6.4511 5.7475
v  -4.6752 -19.2725 6.6407
v  22.9108 -11.1322 5.5630
v  -34.7236 -16.9997 7.1206
v  35.0203 0.5550 3.5880
v  39.3671 15.2676 -1.5175
v  36.1535 17.8095 -3.3142
v  31.0888 -4.9728 3.3412
v  -2.1605 20.4021 0.9381
v  -23.0628 3.6710 6.0101
v  -38.4132 -10.3558 -1.5680
v  -38.1715 -8.5962 10.9055
v  -30.8579 -2.3440 3.5829
v  -15.6737 -19.5473 2.5226
v  -23.5882 -18.1336 1.3768
v  26.5244 -11.9073 0.9852
v  -16.3066 10.1096 -2.0062
v  -8.2428 19.0129 1.2109
v  37.6965 7.8304 -3.4638
v  4.4845 21.0523 -5.4593
v  -33.5676 -2.3013 3.3083
v  24.9748 -16.7525 -0.6020
v  -34.9956 -4.7362 1.6255
v  34.5731 3.8071 -5.6726
v  -18.1417 5.8915 -7.5072
v  -1.9314 -20.1956 -0.7171
v  4.7295 -21.7173 -0.8220
v  -32.4963 -5.6253 -8.1043
v  17.7761 -20.8066 -1.0569
v  9.4626 19.7276 -3.6634
v  -25.0078 -1.1587 -9.1862
v  30.5381 -4.1892 -3.8779
v  -37.3481 -15.2593 5.8012
v  24.9023 18.3911 -8.8742
v  -29.4699 -19.0384 -5.7500
v  20.7770 -19.2252 -8.7830
v  -1.2402 -20.8678 -6.2792
v  -13.6303 -20.4424 -5.9426
v  15.6656 20.1265 -12.1023
v  35.4681 0.1950 -8.3300
v  -37.1932 -16.4644 -6.8569
v  -7.5819 19.5906 -8.0621
v  20.3727 14.0770 -11.5188
v  31.2469 -5.0567 -10.2366
v  27.1349 -10.9705 -10.3800
v  8.3278 -20.9932 -8.4316
v  24.4109 -16.2260 -11.8973
v  26.1251 9.6777 -9.4165
v  -13.8725 12.0071 -8.2910
v  22.7760 -0.6098 -12.6292
v  21.5667 3.7785 -12.2556
v  -34.4708 -17.2798 -16.7696
v  -3.5961 -20.5241 -13.0109
v  -11.8293 19.3894 -11.7297
v  3.7172 20.7191 -17.3168
v  -20.7859 6.9474 -12.0727
v  -27.1042 1.7787 -12.8198
v  -36.9364 -13.2548 -18.4158
v  -22.2119 -18.8737 -15.5753
v  12.3899 17.7709 -14.9316
v  17.2723 -6.8609 -13.7930
v  12.0717 -18.2815 -15.7191
v  -17.3434 13.5809 -15.5945
v  -24.6660 6.2269 -14.7369
v  -7.3929 20.1308 -16.5160
v  3.4060 12.6954 -18.4392
v  -33.1746 -6.5396 -16.3597
v  -29.1966 -4.4952 -24.2839
v  11.3747 1.9357 -16.2238
v  -18.3099 6.2398 -21.2103
v  0.9711 -8.6714 -19.3464
v  -5.7160 -18.0199 -19.8720
v  3.7411 1.1739 -18.5571
v  -31.6034 -8.1006 -27.1544
v  1.2001 4.4989 -20.2921
v  -9.3718 14.2833 -21.6911
v  -23.9889 2.9038 -22.3814
v  -2.7568 18.5895 -19.5751
v  -7.4951 -15.0253 -23.0515
v  -9.6083 -5.4398 -23.1257
v  -32.2242 -15.8871 -24.1828
v  -10.9315 7.9737 -23.6848
v  -8.3097 -0.8543 -22.1736
v  -14.0625 10.8554 -22.3174
v  -18.3823 -16.0561 -25.0327
v  -15.0470 3.5823 -23.7358
v  -21.9709 -5.9583 -25.0440
v  -27.0370 -11.6750 -27.0863
v  -23.4171 1.3216 -24.7236
v  -27.0339 -4.3596 -25.8741
v  30.8123 9.4840 26.3658
# 156 vertices

vn 0.7231 0.6832 0.1019
vn 0.1765 0.9841 0.0200
vn 0.1823 0.9641 0.1930
vn 0.8823 -0.2655 0.3887
vn 0.7795 -0.5046 0.3711
vn 0.8691 -0.4432 0.2199
vn -0.1605 0.1273 0.9788
vn -0.2931 0.1202 0.9485
vn -0.2338 0.0666 0.9700
vn -0.0965 0.2354 0.9671
vn 0.0242 0.9900 0.1391
vn 0.0114 -0.1849 0.9827
vn 0.4698 -0.8475 0.2471
vn 0.3506 -0.5545 0.7547
vn -0.2629 0.1437 0.9541
vn -0.2089 -0.1092 0.9718
vn -0.1975 0.2908 0.9362
vn 0.8363 0.0645 0.5444
vn -0.3260 0.0942 0.9407
vn -0.0043 0.9251 0.3797
vn 0.5452 -0.4153 0.7282
vn -0.2947 0.0910 0.9512
vn -0.1870 0.1878 0.9642
vn 0.0849 -0.6887 0.7200
vn -0.3554 0.1609 0.9208
vn 0.9732 -0.0920 0.2108
vn -0.3228 0.4332 0.8415
vn -0.2172 -0.7619 0.6102
vn -0.3494 0.2613 0.8998
vn 0.8233 -0.3892 0.4132
vn 0.4510 -0.7749 0.4429
vn 0.0666 0.9978 0.0002
vn -0.2539 -0.1243 0.9592
vn 0.5523 -0.7934 0.2560
vn -0.3642 0.6110 0.7028
vn 0.0163 0.9997 0.0191
vn 0.5687 -0.7611 0.3120
vn -0.0702 -0.9811 0.1804
vn -0.1348 0.9512 0.2774
vn -0.3110 0.4382 0.8434
vn -0.1980 -0.0885 0.9762
vn -0.0317 0.9988 0.0361
vn -0.0976 -0.9888 0.1126
vn -0.2408 -0.1076 0.9646
vn 0.0665 0.9971 0.0360
vn -0.4229 0.2481 0.8716
vn 0.9516 -0.2766 0.1336
vn -0.1296 -0.0959 0.9869
vn -0.2223 -0.8520 0.4741
vn -0.4400 0.8889 0.1273
vn -0.6979 0.5382 0.4726
vn -0.4664 0.7083 0.5299
vn 0.0669 0.9967 -0.0463
vn -0.2019 0.1879 0.9612
vn -0.0800 -0.9905 0.1118
vn -0.1841 0.0417 0.9820
vn -0.7266 0.6863 -0.0327
vn -0.1820 0.0216 0.9831
vn 0.1855 0.9826 -0.0076
vn -0.2268 -0.0682 0.9716
vn 0.6733 -0.6327 0.3826
vn -0.2331 -0.7028 0.6721
vn 0.0735 -0.9915 0.1077
vn -0.5133 0.8575 0.0363
vn -0.6773 -0.2180 0.7027
vn 0.6221 -0.4808 0.6179
vn -0.1067 -0.9932 0.0462
vn 0.7893 -0.3552 0.5008
vn -0.1627 -0.9861 0.0335
vn 0.8828 -0.4249 0.2006
vn 0.8842 0.2764 -0.3765
vn 0.5391 0.6462 -0.5402
vn 0.6981 -0.6450 0.3108
vn -0.1051 0.9930 0.0547
vn -0.6380 0.7599 -0.1242
vn -0.9672 0.2347 -0.0969
vn -0.9936 0.1078 0.0344
vn -0.4883 0.8567 -0.1661
vn -0.0842 -0.9902 0.1112
vn -0.1358 -0.9854 0.1026
vn 0.8568 -0.4575 0.2378
vn -0.7987 0.5998 -0.0485
vn -0.5892 0.8079 0.0078
vn 0.8593 -0.1245 -0.4961
vn 0.0182 0.9997 0.0148
vn -0.3914 0.9130 -0.1154
vn 0.7708 -0.6069 0.1936
vn -0.7842 0.5896 -0.1934
vn 0.7207 0.1322 -0.6805
vn -0.7422 0.6692 0.0355
vn -0.1050 -0.9911 0.0815
vn -0.0228 -0.9997 -0.0125
vn -0.6661 0.7401 -0.0927
vn 0.2565 -0.9664 -0.0161
vn 0.0678 0.9970 -0.0385
vn -0.6094 0.7886 0.0822
vn 0.7928 -0.6083 0.0378
vn -0.8850 -0.4635 0.0437
vn 0.2827 0.8791 -0.3837
vn -0.1921 -0.9794 0.0623
vn 0.3126 -0.9245 -0.2180
vn -0.0574 -0.9983 -0.0140
vn -0.0549 -0.9983 -0.0169
vn 0.1483 0.9773 -0.1511
vn 0.8490 -0.0896 -0.5208
vn -0.6846 -0.7288 -0.0165
vn -0.3782 0.9220 0.0833
vn 0.4061 0.0719 -0.9110
vn 0.6400 -0.3421 -0.6880
vn 0.7427 -0.3191 -0.5887
vn 0.0766 -0.9749 -0.2090
vn 0.5819 -0.3601 -0.7292
vn 0.4315 0.1293 -0.8928
vn -0.7805 0.5882 0.2116
vn 0.3180 0.0699 -0.9455
vn 0.3883 0.1383 -0.9111
vn -0.3542 -0.9194 -0.1711
vn -0.0105 -0.9780 -0.2084
vn -0.6051 0.7785 0.1666
vn 0.1173 0.8985 -0.4229
vn -0.7079 0.6478 0.2816
vn -0.7999 0.5941 0.0845
vn -0.9368 0.2451 -0.2498
vn -0.0674 -0.9798 -0.1881
vn 0.3776 0.1372 -0.9158
vn 0.3019 -0.0155 -0.9532
vn 0.2757 -0.5270 -0.8039
vn -0.7827 0.6118 -0.1146
vn -0.6075 0.7918 -0.0633
vn -0.2496 0.9294 -0.2719
vn 0.3299 0.1095 -0.9376
vn -0.7612 0.6338 -0.1375
vn -0.7515 0.6176 -0.2319
vn 0.3341 0.0192 -0.9423
vn -0.5424 0.6038 -0.5841
vn 0.3400 0.0231 -0.9402
vn 0.0505 -0.8830 -0.4667
vn 0.3197 -0.0688 -0.9450
vn -0.6730 0.3038 -0.6743
vn 0.3240 0.0168 -0.9459
vn -0.0869 0.4809 -0.8724
vn -0.6285 0.6881 -0.3627
vn 0.1093 0.4151 -0.9032
vn 0.2739 -0.1482 -0.9503
vn 0.2285 0.0627 -0.9715
vn -0.3488 -0.7632 -0.5440
vn 0.1547 0.0536 -0.9865
vn 0.2222 0.0272 -0.9746
vn -0.4788 0.4937 -0.7259
vn 0.0357 -0.8008 -0.5979
vn 0.1005 0.0704 -0.9924
vn 0.1909 0.0996 -0.9765
vn 0.0625 -0.1381 -0.9884
vn -0.0952 0.3421 -0.9348
vn -0.0336 0.2618 -0.9645
vn 0.0385 0.0138 0.9992
# 156 vertex normals

vt 0.0922 0.4175 0.0000
vt 0.1025 0.4343 0.0000
vt 0.0219 0.4263 0.0000
vt 0.0237 0.3605 0.0000
vt 0.0250 0.3372 0.0000
vt 0.1141 0.3422 0.0000
vt 0.9271 0.5750 0.0000
vt 0.9308 0.6171 0.0000
vt 0.8908 0.6197 0.0000
vt 0.9772 0.5191 0.0000
vt 0.9877 0.5070 0.0000
vt 0.9887 0.5627 0.0000
vt 0.8892 0.5450 0.0000
vt 0.8442 0.5293 0.0000
vt 0.9021 0.5016 0.0000
vt 0.8347 0.5875 0.0000
vt 0.8737 0.6540 0.0000
vt 0.8288 0.6368 0.0000
vt 0.9666 0.6012 0.0000
vt 0.0217 0.4080 0.0000
vt 0.8708 0.7149 0.0000
vt 0.9900 0.6297 0.0000
vt 0.7775 0.6205 0.0000
vt 0.7802 0.6516 0.0000
vt 0.7393 0.7143 0.0000
vt 0.7102 0.6566 0.0000
vt 0.9561 0.7327 0.0000
vt 0.0865 0.4018 0.0000
vt 0.7648 0.7503 0.0000
vt 0.6998 0.7768 0.0000
vt 0.8909 0.7602 0.0000
vt 0.0100 0.2243 0.0000
vt 0.0107 0.1584 0.0000
vt 0.0798 0.1862 0.0000
vt 0.6980 0.6112 0.0000
vt 0.1344 0.5173 0.0000
vt 0.0250 0.5479 0.0000
vt 0.0270 0.4808 0.0000
vt 0.7879 0.7648 0.0000
vt 0.0991 0.2848 0.0000
vt 0.0291 0.2775 0.0000
vt 0.7208 0.7983 0.0000
vt 0.1043 0.4569 0.0000
vt 0.0872 0.2437 0.0000
vt 0.0583 0.0937 0.0000
vt 0.6417 0.7354 0.0000
vt 0.5278 0.7679 0.0000
vt 0.5541 0.7119 0.0000
vt 0.9838 0.7218 0.0000
vt 0.8542 0.8388 0.0000
vt 0.8159 0.8460 0.0000
vt 0.0471 0.5842 0.0000
vt 0.0368 0.6398 0.0000
vt 0.4789 0.7128 0.0000
vt 0.9736 0.4952 0.0000
vt 0.6685 0.6946 0.0000
vt 0.7305 0.8686 0.0000
vt 0.1318 0.5745 0.0000
vt 0.9566 0.8007 0.0000
vt 0.1549 0.3713 0.0000
vt 0.7586 0.9079 0.0000
vt 0.6959 0.8672 0.0000
vt 0.9760 0.8152 0.0000
vt 0.9221 0.8608 0.0000
vt 0.8740 0.8924 0.0000
vt 0.4395 0.7403 0.0000
vt 0.1933 0.4578 0.0000
vt 0.8293 0.9152 0.0000
vt 0.5714 0.6522 0.0000
vt 0.8048 0.9423 0.0000
vt 0.7861 0.9863 0.0000
vt 0.7799 0.9777 0.0000
vt 0.1466 0.5469 0.0000
vt 0.7559 0.9900 0.0000
vt 0.1320 0.1087 0.0000
vt 0.7025 0.9733 0.0000
vt 0.6473 0.6234 0.0000
vt 0.8347 0.9279 0.0000
vt 0.7202 0.9866 0.0000
vt 0.1453 0.2145 0.0000
vt 0.5294 0.6664 0.0000
vt 0.1487 0.1796 0.0000
vt 0.6827 0.6200 0.0000
vt 0.3309 0.7354 0.0000
vt 0.3351 0.7676 0.0000
vt 0.1769 0.2975 0.0000
vt 0.2129 0.4069 0.0000
vt 0.2209 0.4386 0.0000
vt 0.1761 0.2498 0.0000
vt 0.1409 0.6978 0.0000
vt 0.0578 0.7338 0.0000
vt 0.0476 0.8059 0.0000
vt 0.0694 0.8841 0.0000
vt 0.0415 0.8637 0.0000
vt 0.5720 0.9005 0.0000
vt 0.4817 0.8532 0.0000
vt 0.5671 0.8692 0.0000
vt 0.0178 0.9103 0.0000
vt 0.0100 0.9849 0.0000
vt 0.0744 0.9564 0.0000
vt 0.5765 0.8334 0.0000
vt 0.4472 0.6635 0.0000
vt 0.3917 0.6735 0.0000
vt 0.1893 0.1893 0.0000
vt 0.1367 0.8278 0.0000
vt 0.1306 0.7405 0.0000
vt 0.2256 0.3526 0.0000
vt 0.1935 0.6591 0.0000
vt 0.0725 0.9752 0.0000
vt 0.2012 0.1534 0.0000
vt 0.5002 0.9002 0.0000
vt 0.2420 0.3182 0.0000
vt 0.1709 0.8658 0.0000
vt 0.5309 0.6122 0.0000
vt 0.5754 0.5955 0.0000
vt 0.5103 0.9207 0.0000
vt 0.4287 0.8983 0.0000
vt 0.6598 0.5615 0.0000
vt 0.7137 0.5412 0.0000
vt 0.1890 0.6217 0.0000
vt 0.1682 0.9322 0.0000
vt 0.2257 0.2489 0.0000
vt 0.5346 0.8210 0.0000
vt 0.5456 0.7999 0.0000
vt 0.5766 0.8106 0.0000
vt 0.2444 0.5234 0.0000
vt 0.3377 0.6369 0.0000
vt 0.6606 0.5033 0.0000
vt 0.5231 0.5744 0.0000
vt 0.4420 0.6029 0.0000
vt 0.2545 0.5912 0.0000
vt 0.2597 0.2923 0.0000
vt 0.2824 0.6472 0.0000
vt 0.1941 0.7466 0.0000
vt 0.1536 0.9900 0.0000
vt 0.6341 0.2532 0.0000
vt 0.6670 0.2192 0.0000
vt 0.7544 0.2146 0.0000
vt 0.2703 0.2454 0.0000
vt 0.4461 0.8088 0.0000
vt 0.2688 0.1957 0.0000
vt 0.5804 0.5375 0.0000
vt 0.6770 0.4676 0.0000
vt 0.7816 0.2297 0.0000
vt 0.7707 0.2834 0.0000
vt 0.6794 0.2801 0.0000
vt 0.1825 0.8168 0.0000
vt 0.7477 0.3145 0.0000
vt 0.2798 0.1551 0.0000
vt 0.7498 0.3462 0.0000
vt 0.6570 0.3556 0.0000
vt 0.6470 0.3253 0.0000
vt 0.2792 0.5724 0.0000
vt 0.4921 0.5372 0.0000
vt 0.2184 0.7747 0.0000
vt 0.2754 0.6784 0.0000
vt 0.2085 0.8790 0.0000
vt 0.2026 0.9364 0.0000
vt 0.3663 0.8333 0.0000
vt 0.3631 0.5577 0.0000
vt 0.7201 0.3848 0.0000
vt 0.5714 0.2335 0.0000
vt 0.6954 0.4290 0.0000
vt 0.6219 0.4018 0.0000
vt 0.5881 0.4814 0.0000
vt 0.2369 0.8302 0.0000
vt 0.2259 0.9081 0.0000
vt 0.5982 0.2122 0.0000
vt 0.2536 0.7505 0.0000
vt 0.5078 0.2743 0.0000
vt 0.3725 0.8808 0.0000
vt 0.3122 0.9005 0.0000
vt 0.5720 0.3439 0.0000
vt 0.5073 0.2181 0.0000
vt 0.2777 0.8740 0.0000
vt 0.5028 0.4217 0.0000
vt 0.4637 0.4951 0.0000
vt 0.5167 0.3532 0.0000
vt 0.2959 0.8675 0.0000
vt 0.3726 0.7991 0.0000
vt 0.4936 0.3323 0.0000
vt 0.2944 0.7880 0.0000
vt 0.3862 0.9563 0.0000
vt 0.3688 0.9900 0.0000
vt 0.3160 0.9650 0.0000
vt 0.2861 0.7286 0.0000
vt 0.4438 0.4707 0.0000
vt 0.2837 0.9189 0.0000
vt 0.4222 0.4075 0.0000
vt 0.4147 0.2710 0.0000
vt 0.4609 0.2372 0.0000
vt 0.3166 0.8109 0.0000
vt 0.2782 0.5127 0.0000
vt 0.4046 0.3172 0.0000
vt 0.4292 0.3749 0.0000
vt 0.2918 0.8301 0.0000
vt 0.3698 0.4861 0.0000
vt 0.3505 0.3284 0.0000
vt 0.3818 0.2963 0.0000
vt 0.3775 0.3496 0.0000
vt 0.3361 0.4232 0.0000
vt 0.3141 0.3576 0.0000
vt 0.3050 0.4692 0.0000
vt 0.3223 0.3755 0.0000
vt 0.2988 0.4177 0.0000
vt 0.2710 0.4504 0.0000
vt 0.9262 0.4970 0.0000
vt 0.9243 0.5148 0.0000
vt 0.2804 0.4144 0.0000
vt 0.5774 0.8701 0.0000
# 210 texture coords

o Rock_3
g Rock_3
usemtl Rock_3
s 1
f 1/1/1 2/2/2 3/3/3 
f 4/4/4 5/5/5 6/6/6 
f 7/7/7 8/8/8 9/9/9 
f 10/10/10 3/11/3 11/12/11 
f 12/13/12 13/14/13 5/15/5 
f 12/13/12 9/9/9 14/16/14 
f 9/9/9 15/17/15 16/18/16 
f 14/16/14 9/9/9 16/18/16 
f 12/13/12 14/16/14 13/14/13 
f 11/12/11 17/19/17 10/10/10 
f 1/1/1 3/3/3 18/20/18 
f 19/21/19 16/18/16 15/17/15 
f 17/19/17 11/12/11 20/22/20 
f 16/18/16 21/23/21 14/16/14 
f 21/23/21 16/18/16 22/24/22 
f 9/9/9 19/21/19 15/17/15 
f 21/23/21 22/24/22 23/25/23 
f 21/23/21 23/25/23 24/26/24 
f 20/22/20 25/27/25 17/19/17 
f 26/28/26 4/4/4 6/6/6 
f 22/24/22 16/18/16 27/29/27 
f 27/29/27 23/25/23 22/24/22 
f 23/25/23 28/30/28 24/26/24 
f 9/9/9 8/8/8 29/31/29 
f 9/9/9 29/31/29 19/21/19 
f 14/32/14 21/33/21 30/34/30 
f 24/26/24 31/35/31 21/23/21 
f 17/19/17 25/27/25 8/8/8 
f 32/36/32 20/37/20 11/38/11 
f 19/21/19 33/39/33 16/18/16 
f 14/32/14 34/40/34 13/41/13 
f 27/29/27 16/18/16 33/39/33 
f 23/25/23 35/42/35 28/30/28 
f 3/3/3 36/43/36 11/38/11 
f 14/32/14 30/34/30 37/44/37 
f 8/8/8 25/27/25 29/31/29 
f 21/33/21 31/45/31 30/34/30 
f 24/46/24 28/47/28 38/48/38 
f 25/27/25 20/22/20 39/49/39 
f 19/21/19 29/31/29 40/50/40 
f 13/41/13 34/40/34 5/5/5 
f 36/43/36 32/36/32 11/38/11 
f 19/21/19 40/50/40 41/51/41 
f 19/21/19 41/51/41 33/39/33 
f 20/37/20 42/52/42 39/53/39 
f 27/29/27 35/42/35 23/25/23 
f 5/5/5 34/40/34 6/6/6 
f 28/47/28 43/54/43 38/48/38 
f 18/55/18 3/11/3 10/10/10 
f 24/46/24 38/48/38 31/56/31 
f 37/44/37 34/40/34 14/32/14 
f 35/42/35 27/29/27 44/57/44 
f 35/42/35 44/57/44 28/30/28 
f 32/36/32 45/58/45 20/37/20 
f 25/27/25 46/59/46 29/31/29 
f 6/6/6 47/60/47 26/28/26 
f 33/39/33 41/51/41 48/61/48 
f 33/39/33 48/61/48 27/29/27 
f 28/30/28 44/57/44 49/62/49 
f 25/27/25 39/49/39 50/63/50 
f 46/59/46 50/63/50 51/64/51 
f 48/61/48 44/57/44 27/29/27 
f 52/65/52 40/50/40 29/31/29 
f 28/47/28 49/66/49 43/54/43 
f 45/58/45 42/52/42 20/37/20 
f 3/3/3 53/67/53 36/43/36 
f 41/51/41 40/50/40 54/68/54 
f 55/69/55 31/56/31 38/48/38 
f 2/2/2 53/67/53 3/3/3 
f 29/31/29 51/64/51 52/65/52 
f 41/51/41 54/68/54 56/70/56 
f 56/70/56 57/71/57 58/72/58 
f 32/36/32 59/73/59 45/58/45 
f 60/74/60 48/61/48 58/72/58 
f 30/34/30 31/45/31 61/75/61 
f 44/57/44 62/76/62 49/62/49 
f 55/69/55 63/77/63 31/56/31 
f 52/65/52 64/78/64 40/50/40 
f 60/74/60 65/79/65 48/61/48 
f 48/61/48 62/76/62 44/57/44 
f 37/44/37 30/34/30 66/80/66 
f 67/81/67 38/48/38 43/54/43 
f 30/34/30 68/82/68 66/80/66 
f 63/77/63 61/83/61 31/56/31 
f 69/84/69 49/66/49 62/85/62 
f 34/40/34 70/86/70 6/6/6 
f 71/87/71 26/28/26 47/60/47 
f 72/88/72 1/1/1 71/87/71 
f 34/40/34 37/44/37 73/89/73 
f 67/81/67 55/69/55 38/48/38 
f 39/53/39 74/90/74 50/91/50 
f 45/58/45 39/53/39 42/52/42 
f 51/92/51 75/93/75 52/94/52 
f 57/95/57 76/96/76 77/97/77 
f 75/93/75 64/98/64 52/94/52 
f 57/99/57 64/98/64 78/100/78 
f 37/44/37 66/80/66 73/89/73 
f 65/101/65 77/97/77 76/96/76 
f 43/54/43 79/102/79 67/81/67 
f 78/100/78 64/98/64 75/93/75 
f 30/34/30 61/75/61 68/82/68 
f 80/103/80 43/54/43 49/66/49 
f 69/84/69 80/103/80 49/66/49 
f 70/86/70 34/40/34 73/89/73 
f 66/80/66 81/104/81 73/89/73 
f 80/103/80 79/102/79 43/54/43 
f 50/91/50 82/105/82 51/92/51 
f 74/90/74 83/106/83 50/91/50 
f 82/105/82 50/91/50 83/106/83 
f 70/86/70 84/107/84 6/6/6 
f 39/53/39 85/108/85 74/90/74 
f 78/100/78 86/109/86 57/99/57 
f 72/88/72 2/2/2 1/1/1 
f 61/75/61 87/110/87 68/82/68 
f 88/111/88 76/96/76 57/95/57 
f 89/112/89 84/107/84 70/86/70 
f 68/82/68 81/104/81 66/80/66 
f 90/113/90 51/92/51 82/105/82 
f 75/93/75 51/92/51 90/113/90 
f 45/58/45 85/108/85 39/53/39 
f 47/60/47 6/6/6 84/107/84 
f 46/59/46 51/64/51 29/31/29 
f 91/114/91 55/69/55 67/81/67 
f 55/69/55 92/115/92 63/77/63 
f 91/114/91 67/81/67 79/102/79 
f 88/111/88 86/116/86 93/117/93 
f 81/104/81 68/82/68 87/110/87 
f 61/83/61 94/118/94 87/119/87 
f 94/118/94 61/83/61 63/77/63 
f 95/120/95 85/108/85 45/58/45 
f 90/113/90 96/121/96 75/93/75 
f 73/89/73 97/122/97 70/86/70 
f 55/69/55 91/114/91 92/115/92 
f 94/118/94 63/77/63 92/115/92 
f 98/123/98 69/124/69 62/125/62 
f 99/126/99 36/43/36 53/67/53 
f 46/59/46 25/27/25 50/63/50 
f 97/122/97 73/89/73 81/104/81 
f 99/126/99 32/36/32 36/43/36 
f 71/87/71 47/60/47 84/107/84 
f 80/103/80 100/127/100 79/102/79 
f 87/119/87 94/118/94 101/128/101 
f 96/121/96 78/100/78 75/93/75 
f 102/129/102 92/115/92 91/114/91 
f 79/102/79 103/130/103 91/114/91 
f 104/131/104 95/120/95 45/58/45 
f 59/73/59 104/131/104 45/58/45 
f 91/114/91 103/130/103 102/129/102 
f 89/112/89 70/86/70 105/132/105 
f 69/84/69 106/133/106 80/103/80 
f 83/106/83 107/134/107 82/105/82 
f 78/100/78 93/135/93 86/109/86 
f 108/136/108 99/137/99 72/138/72 
f 100/127/100 103/130/103 79/102/79 
f 70/86/70 97/122/97 109/139/109 
f 98/123/98 76/96/76 106/140/106 
f 80/103/80 106/133/106 100/127/100 
f 97/122/97 81/104/81 110/141/110 
f 92/115/92 111/142/111 94/118/94 
f 83/106/83 74/90/74 107/134/107 
f 110/141/110 81/104/81 87/110/87 
f 101/128/101 112/143/112 87/119/87 
f 101/128/101 94/118/94 111/142/111 
f 32/36/32 99/126/99 59/73/59 
f 71/144/71 84/145/84 113/146/113 
f 93/135/93 78/100/78 96/121/96 
f 85/108/85 107/134/107 74/90/74 
f 108/136/108 72/138/72 71/144/71 
f 114/147/114 82/105/82 107/134/107 
f 113/146/113 108/136/108 71/144/71 
f 111/142/111 92/115/92 102/129/102 
f 104/131/104 59/73/59 99/126/99 
f 82/105/82 114/147/114 90/113/90 
f 84/145/84 89/148/89 113/146/113 
f 105/132/105 70/86/70 109/139/109 
f 110/141/110 87/110/87 112/149/112 
f 97/122/97 110/141/110 109/139/109 
f 105/150/105 115/151/115 89/148/89 
f 113/146/113 89/148/89 116/152/116 
f 117/153/117 100/127/100 106/133/106 
f 118/154/118 111/142/111 102/129/102 
f 116/152/116 89/148/89 115/151/115 
f 119/155/119 114/147/114 107/134/107 
f 120/156/120 85/108/85 95/120/95 
f 96/121/96 90/113/90 121/157/121 
f 90/113/90 114/147/114 121/157/121 
f 96/121/96 122/158/122 93/135/93 
f 123/159/123 106/140/106 76/96/76 
f 102/129/102 103/130/103 124/160/124 
f 96/121/96 121/157/121 122/158/122 
f 115/151/115 105/150/105 109/161/109 
f 100/127/100 124/160/124 103/130/103 
f 120/156/120 95/120/95 104/131/104 
f 118/154/118 102/129/102 124/160/124 
f 125/162/125 99/137/99 108/136/108 
f 109/161/109 110/163/110 126/164/126 
f 118/154/118 101/128/101 111/142/111 
f 126/164/126 115/151/115 109/161/109 
f 126/164/126 110/163/110 112/143/112 
f 127/165/127 112/143/112 101/128/101 
f 114/147/114 128/166/128 121/157/121 
f 121/157/121 129/167/129 122/158/122 
f 99/137/99 125/162/125 104/168/104 
f 85/108/85 130/169/130 107/134/107 
f 130/169/130 119/155/119 107/134/107 
f 114/147/114 119/155/119 128/166/128 
f 131/170/131 108/136/108 113/146/113 
f 127/165/127 126/164/126 112/143/112 
f 131/170/131 113/146/113 116/152/116 
f 132/171/132 93/117/93 133/172/133 
f 118/154/118 127/165/127 101/128/101 
f 120/156/120 130/169/130 85/108/85 
f 115/151/115 134/173/134 116/152/116 
f 134/173/134 115/151/115 126/164/126 
f 104/168/104 125/162/125 120/174/120 
f 100/127/100 117/153/117 124/160/124 
f 131/170/131 125/162/125 108/136/108 
f 134/173/134 131/170/131 116/152/116 
f 119/155/119 130/169/130 128/166/128 
f 128/166/128 135/175/135 121/157/121 
f 136/176/136 126/164/126 127/165/127 
f 124/160/124 137/177/137 118/154/118 
f 135/175/135 129/167/129 121/157/121 
f 134/173/134 126/164/126 138/178/138 
f 139/179/139 76/96/76 132/171/132 
f 123/159/123 117/180/117 106/140/106 
f 137/177/137 127/165/127 118/154/118 
f 131/170/131 134/173/134 140/181/140 
f 125/162/125 131/170/131 120/174/120 
f 141/182/141 128/166/128 130/169/130 
f 133/172/133 93/117/93 122/183/122 
f 76/96/76 139/179/139 123/159/123 
f 129/184/129 142/185/142 122/183/122 
f 138/178/138 140/181/140 134/173/134 
f 130/169/130 120/156/120 143/186/143 
f 144/187/144 127/165/127 137/177/137 
f 138/178/138 126/164/126 136/176/136 
f 144/187/144 136/176/136 127/165/127 
f 135/175/135 142/188/142 129/167/129 
f 145/189/145 138/178/138 136/176/136 
f 141/190/141 143/191/143 131/170/131 
f 123/159/123 146/192/146 117/180/117 
f 117/153/117 146/193/146 124/160/124 
f 122/183/122 142/185/142 133/172/133 
f 147/194/147 131/170/131 140/181/140 
f 145/189/145 148/195/148 138/178/138 
f 141/190/141 131/170/131 147/194/147 
f 128/166/128 141/182/141 149/196/149 
f 148/195/148 140/181/140 138/178/138 
f 150/197/150 137/177/137 124/160/124 
f 144/187/144 145/189/145 136/176/136 
f 123/159/123 139/179/139 146/192/146 
f 147/194/147 135/198/135 149/199/149 
f 151/200/151 147/194/147 140/181/140 
f 146/193/146 150/197/150 124/160/124 
f 135/198/135 147/194/147 151/200/151 
f 151/200/151 140/181/140 148/195/148 
f 150/197/150 144/187/144 137/177/137 
f 151/200/151 148/195/148 152/201/152 
f 152/201/152 148/195/148 145/189/145 
f 152/201/152 145/189/145 144/187/144 
f 151/200/151 142/202/142 135/198/135 
f 152/201/152 144/187/144 153/203/153 
f 151/200/151 152/201/152 154/204/154 
f 153/203/153 144/187/144 150/197/150 
f 153/203/153 150/197/150 146/193/146 
f 154/204/154 152/201/152 155/205/155 
f 146/193/146 139/206/139 153/203/153 
f 155/205/155 152/201/152 139/206/139 
f 152/201/152 153/203/153 139/206/139 
f 7/7/7 9/9/9 12/13/12 
f 17/19/17 8/8/8 7/7/7 
f 12/13/12 5/15/5 4/207/4 
f 156/208/156 7/7/7 12/13/12 
f 17/19/17 7/7/7 10/10/10 
f 18/20/18 26/28/26 1/1/1 
f 156/208/156 10/10/10 7/7/7 
f 4/4/4 26/28/26 18/20/18 
f 71/87/71 1/1/1 26/28/26 
f 156/208/156 4/207/4 18/55/18 
f 149/196/149 135/175/135 128/166/128 
f 149/199/149 141/190/141 147/194/147 
f 143/186/143 141/182/141 130/169/130 
f 143/191/143 120/174/120 131/170/131 
f 154/204/154 142/202/142 151/200/151 
f 133/209/133 142/202/142 154/204/154 
f 139/206/139 133/209/133 155/205/155 
f 72/88/72 53/67/53 2/2/2 
f 72/88/72 99/126/99 53/67/53 
f 132/171/132 76/96/76 93/117/93 
f 132/171/132 133/172/133 139/179/139 
f 88/111/88 93/117/93 76/96/76 
f 88/111/88 57/95/57 86/116/86 
f 65/79/65 62/76/62 48/61/48 
f 76/96/76 98/123/98 65/101/65 
f 98/123/98 106/140/106 69/124/69 
f 98/123/98 62/125/62 65/101/65 
f 60/210/60 77/97/77 65/101/65 
f 57/95/57 77/97/77 60/210/60 
f 48/61/48 41/51/41 56/70/56 
f 64/78/64 57/71/57 56/70/56 
f 40/50/40 64/78/64 54/68/54 
f 156/208/156 12/13/12 4/207/4 
f 10/10/10 156/208/156 18/55/18 
f 155/205/155 133/209/133 154/204/154 
f 58/72/58 57/71/57 60/74/60 
f 58/72/58 48/61/48 56/70/56 
f 54/68/54 64/78/64 56/70/56 
# 308 faces

