# 3ds Max Wavefront OBJ Exporter v0.97b - (c)2007 guruware
# File Created: 22.02.2020 01:33:40

mtllib Rock_6.mtl

#
# object Rock_6
#

v  -23.6341 -11.7241 -29.4037
v  -15.1491 -6.8437 -30.3813
v  -16.4144 -14.8594 -32.3755
v  -20.5453 -16.2687 -26.3780
v  -26.6852 -12.7695 -26.8349
v  -23.1098 3.2571 -26.7426
v  -20.0291 -16.6176 -9.6384
v  -26.5884 -11.6870 -19.1635
v  -27.5758 -1.5254 -22.7912
v  -24.9107 1.2409 -24.7654
v  -25.2660 11.0803 -21.2453
v  -26.2118 -4.8953 -12.3194
v  -26.3150 15.6193 -18.3334
v  -14.8589 16.2432 -20.9979
v  -14.0096 11.0142 -25.2743
v  -17.8410 -18.9309 -8.6442
v  -15.8513 -17.4667 -20.7287
v  -24.7553 -10.8372 -4.4847
v  -25.7868 15.2444 -10.6174
v  -24.6447 16.6049 -10.5649
v  -16.6163 17.8711 -8.0159
v  -23.9952 18.3069 2.8495
v  -20.2903 -18.0468 6.9623
v  -23.0594 -14.4808 6.1313
v  -24.5571 -2.0199 2.5492
v  -25.1584 3.8169 -3.3233
v  -23.3583 -1.3006 12.2847
v  -23.3984 11.6612 10.0476
v  -18.8977 -17.0812 14.7604
v  -21.6604 -12.2028 16.6654
v  -21.8086 9.1798 20.8930
v  -21.8650 19.1890 19.6150
v  -14.1384 19.0367 11.9216
v  -18.0759 -17.6239 23.6606
v  -21.3700 -4.3553 23.6822
v  -19.8852 -14.2470 28.9324
v  -20.4922 -2.0904 31.0664
v  -19.8116 4.9418 34.8340
v  -21.3036 14.6134 26.7641
v  -15.0569 15.4363 30.0576
v  -17.7216 18.2909 24.5491
v  -11.6224 18.3791 21.7513
v  -17.7111 -14.8364 33.9961
v  -18.6920 -10.5057 37.0588
v  -16.8259 -0.3362 36.2071
v  -16.9644 10.7906 36.4641
v  -19.6708 11.5426 34.0775
v  -13.4984 -16.3478 -32.2964
v  -5.4754 -16.4507 -26.8596
v  -8.3103 -15.4227 -36.6094
v  -8.9747 -3.0948 -33.1771
v  -17.5197 -0.1490 -27.9695
v  -12.6023 -0.7175 -29.8207
v  -10.1435 4.8028 -28.2223
v  -8.7549 -17.9836 -12.0934
v  -5.7887 -17.2962 -16.7833
v  -4.3091 16.3723 -23.3926
v  -9.6580 17.7250 -12.7115
v  -2.0091 17.3292 -18.2817
v  -10.8621 -18.9696 -7.2938
v  -12.0705 18.6975 -2.8723
v  -13.4248 19.0433 5.0820
v  -9.5529 -18.5455 2.9693
v  -11.9028 -18.3791 11.4240
v  -11.2214 17.2298 4.6950
v  -11.0883 16.5958 11.8249
v  -7.0463 -17.0585 26.8831
v  -7.8513 -16.2881 32.9999
v  -9.3216 -5.9233 36.0545
v  -6.0663 1.8880 34.9885
v  -6.5666 4.7520 34.0966
v  -5.5918 12.7537 33.0226
v  -9.7963 14.5715 32.7698
v  -10.1318 12.5469 35.8586
v  -7.1065 16.5034 27.2433
v  -12.2653 14.0954 34.0610
v  -5.8871 -2.9288 -33.6384
v  -0.8827 -1.4043 -30.4388
v  3.4122 -1.8409 -25.8703
v  3.1527 -1.9039 -30.0989
v  -8.6791 -2.1967 -31.0590
v  5.3497 -16.9641 -16.0099
v  -1.0126 10.2707 -23.7256
v  2.6099 11.0433 -15.8070
v  -4.3825 -19.2513 -6.6170
v  -0.8837 16.3404 1.6891
v  1.1376 -17.6931 -3.0595
v  0.1875 -16.8974 1.2899
v  -3.9655 -18.3542 15.7248
v  -4.6965 15.9877 15.9366
v  4.2232 -17.4902 15.6207
v  -2.4285 -17.4704 25.9195
v  -2.6366 14.8777 29.3343
v  3.6581 15.0258 19.1791
v  0.0737 -12.9528 30.8859
v  -0.3046 6.4441 33.5451
v  2.4086 -13.6925 -33.1951
v  1.5562 -15.6960 -32.3863
v  5.2889 -14.2672 -17.5034
v  4.8693 -10.6879 -20.3267
v  14.2726 -10.4414 -20.0251
v  12.9933 -12.4043 -15.6972
v  5.4882 0.0358 -18.5648
v  16.2218 -2.3504 -18.1764
v  5.6057 -17.6986 -1.9642
v  8.1121 2.0364 -15.7074
v  2.8684 15.9260 -6.1306
v  7.0726 12.0816 -12.9250
v  8.7601 13.1272 4.7559
v  4.9123 12.2882 -4.9143
v  11.9716 12.8476 -7.2424
v  7.8646 -16.5339 6.4229
v  8.7806 -15.3551 24.1635
v  7.9782 12.8194 12.8984
v  2.8082 -16.8719 23.7464
v  6.5460 -15.7043 28.2673
v  10.2229 11.1781 24.9949
v  9.8347 -4.4854 25.9660
v  7.3609 5.2829 31.8433
v  3.3022 9.6328 33.0481
v  1.4284 11.5961 32.8341
v  4.1017 14.1737 30.7912
v  7.3518 13.1958 30.0951
v  9.2869 9.2502 27.8197
v  22.4910 -16.3116 -11.9603
v  15.4270 -0.8512 -14.4984
v  17.8666 9.5111 -9.5967
v  19.7540 1.1432 -11.5177
v  15.3517 -17.0481 2.3052
v  17.2656 -15.9651 14.7653
v  15.3082 12.3337 15.1244
v  20.7289 11.0671 1.6349
v  18.8756 11.1378 12.1007
v  18.2685 11.0284 24.1880
v  25.9236 -13.6480 23.8843
v  21.5399 -6.0010 24.5718
v  16.2934 2.6373 25.9881
v  11.2396 6.8719 25.3591
v  17.9569 5.1488 24.7466
v  22.8109 3.9038 23.4746
v  20.5532 8.0910 24.7882
v  24.1803 1.9391 24.7756
v  24.5404 -10.7477 -16.6440
v  23.0872 -12.7784 -12.2387
v  22.9398 -11.6791 -13.1981
v  25.5873 -11.0915 -11.1080
v  23.2342 -16.0728 4.7594
v  24.0161 -1.1536 -14.8501
v  25.0191 0.3626 -5.7873
v  23.0066 9.6733 -5.9880
v  27.2863 -9.9249 9.5817
v  22.9418 8.0180 1.6220
v  26.8246 -15.0938 7.6312
v  26.0396 -0.1522 11.9107
v  24.0645 2.2668 8.1057
v  22.3745 9.3637 13.3087
v  26.9971 -10.1614 23.4322
v  23.9491 3.0445 17.1018
v  20.2162 11.2919 20.7688
v  22.3582 9.3025 22.1804
v  -1.8605 12.1501 31.8041
v  -2.6401 14.8766 29.3374
# 162 vertices

vn -0.4287 0.0036 -0.9035
vn -0.3365 0.2383 -0.9110
vn -0.4602 -0.0345 -0.8872
vn -0.3361 -0.9318 -0.1373
vn -0.8522 -0.4826 -0.2022
vn -0.3743 0.3088 -0.8744
vn -0.6548 -0.7547 0.0400
vn -0.8961 -0.4335 0.0954
vn -0.9977 0.0156 -0.0658
vn -0.7522 0.1744 -0.6355
vn -0.4459 0.4305 -0.7847
vn -0.9925 -0.0305 0.1184
vn -0.7494 0.6241 -0.2210
vn -0.1407 0.8978 -0.4173
vn -0.1742 0.4743 -0.8629
vn -0.3548 -0.9329 -0.0619
vn -0.0672 -0.9924 -0.1029
vn -0.9304 -0.3605 0.0665
vn -0.9914 0.0792 0.1040
vn -0.2537 0.9627 -0.0936
vn -0.0835 0.9902 -0.1122
vn -0.7669 0.6402 0.0447
vn -0.4384 -0.8981 0.0335
vn -0.9581 -0.2654 0.1080
vn -0.9921 -0.0289 0.1222
vn -0.9931 0.0176 0.1158
vn -0.9891 -0.0291 0.1442
vn -0.9917 0.0278 0.1257
vn -0.5140 -0.8527 0.0929
vn -0.9666 -0.2145 0.1404
vn -0.9899 0.0025 0.1419
vn -0.6558 0.7453 0.1205
vn 0.1122 0.9935 -0.0211
vn -0.3385 -0.9226 0.1852
vn -0.9887 -0.0455 0.1425
vn -0.8264 -0.5240 0.2061
vn -0.9720 -0.0087 0.2347
vn -0.7511 -0.0353 0.6592
vn -0.9267 0.2582 0.2731
vn -0.1528 0.8919 0.4256
vn -0.1137 0.9135 0.3906
vn 0.1791 0.9795 0.0921
vn -0.3015 -0.8609 0.4098
vn -0.4732 -0.1739 0.8636
vn -0.2378 0.1357 0.9618
vn -0.1022 0.0390 0.9940
vn -0.7603 0.4385 0.4793
vn -0.0644 -0.9875 -0.1439
vn 0.0328 -0.9959 -0.0844
vn -0.0587 -0.2218 -0.9733
vn -0.3681 0.3259 -0.8708
vn -0.1341 0.2421 -0.9609
vn -0.3262 0.3312 -0.8854
vn 0.1156 0.3401 -0.9333
vn 0.0247 -0.9896 -0.1419
vn 0.0563 -0.9938 -0.0959
vn 0.1798 0.7339 -0.6551
vn 0.0285 0.9989 -0.0371
vn 0.3449 0.9224 -0.1737
vn -0.0187 -0.9997 -0.0155
vn 0.2130 0.9769 -0.0182
vn 0.0656 0.9975 -0.0255
vn -0.0431 -0.9984 0.0369
vn -0.0475 -0.9983 0.0352
vn 0.1828 0.9818 0.0511
vn 0.3060 0.9517 -0.0260
vn 0.0316 -0.9615 0.2731
vn 0.2256 -0.6579 0.7185
vn 0.2647 -0.0787 0.9611
vn 0.2729 -0.0050 0.9620
vn 0.0845 -0.0063 0.9964
vn 0.3840 0.5609 0.7334
vn 0.1068 0.8985 0.4258
vn 0.1767 0.1192 0.9770
vn 0.1566 0.9695 0.1886
vn -0.1606 0.8254 0.5412
vn 0.1943 0.3340 -0.9223
vn -0.0242 0.9968 -0.0760
vn 0.8448 0.2428 -0.4769
vn 0.6731 0.2855 -0.6822
vn 0.2345 0.5765 -0.7827
vn 0.1201 -0.9796 -0.1610
vn 0.5775 0.3296 -0.7469
vn 0.7200 0.2936 -0.6288
vn 0.1511 -0.9841 -0.0937
vn 0.1738 0.9840 0.0397
vn 0.0137 -0.9518 0.3064
vn 0.1755 -0.9843 0.0192
vn 0.0513 -0.9981 0.0341
vn 0.1339 0.9910 0.0052
vn 0.1936 -0.9810 0.0145
vn 0.0806 -0.9665 0.2435
vn 0.1644 0.9562 0.2420
vn 0.2694 0.9627 0.0252
vn 0.3101 -0.3119 0.8981
vn 0.2246 -0.0767 0.9714
vn 0.6694 0.0387 -0.7419
vn 0.2795 -0.9323 -0.2296
vn 0.7074 -0.3404 -0.6194
vn 0.8006 -0.0382 -0.5979
vn 0.1679 -0.2145 -0.9622
vn 0.2256 -0.6210 -0.7507
vn 0.6802 0.3128 -0.6629
vn 0.2181 0.4015 -0.8895
vn 0.0554 -0.9981 -0.0276
vn 0.3899 0.3668 -0.8446
vn 0.4248 0.9053 -0.0072
vn 0.4749 0.6414 -0.6025
vn 0.2101 0.9777 -0.0002
vn 0.3939 0.9120 -0.1145
vn 0.1513 0.9797 -0.1313
vn 0.1122 -0.9907 0.0770
vn 0.2667 -0.8150 0.5145
vn 0.2624 0.9620 0.0753
vn 0.1265 -0.9642 0.2331
vn 0.4525 -0.4522 0.7686
vn 0.3699 0.8958 0.2464
vn 0.5020 -0.1364 0.8541
vn 0.5036 -0.0918 0.8590
vn 0.2981 0.1254 0.9463
vn -0.0538 0.4429 0.8950
vn 0.1682 0.9372 0.3055
vn 0.5850 0.7236 0.3662
vn 0.8550 0.1531 0.4956
vn 0.2903 -0.9422 -0.1676
vn 0.2557 0.6314 -0.7320
vn 0.3956 0.5009 -0.7698
vn 0.4820 0.5438 -0.6870
vn 0.0609 -0.9979 0.0201
vn 0.0796 -0.9915 0.1034
vn 0.1219 0.9911 0.0536
vn 0.3476 0.9375 -0.0136
vn 0.3893 0.9209 0.0190
vn 0.1029 0.8421 0.5294
vn 0.3425 -0.7284 0.5933
vn 0.0886 -0.0943 0.9916
vn 0.0729 0.0255 0.9970
vn 0.5048 0.0473 0.8619
vn 0.1505 0.1270 0.9804
vn 0.8692 0.3691 0.3289
vn 0.3326 0.1634 0.9288
vn 0.8252 0.2014 0.5278
vn 0.6314 -0.1906 -0.7516
vn 0.7611 -0.4726 -0.4442
vn 0.1805 -0.9095 -0.3745
vn 0.9836 -0.1217 -0.1331
vn 0.2310 -0.9729 -0.0140
vn 0.7471 0.3940 -0.5354
vn 0.9738 0.1734 -0.1469
vn 0.7177 0.6247 -0.3077
vn 0.9985 0.0481 -0.0251
vn 0.9456 0.3232 0.0372
vn 0.8356 -0.5488 -0.0239
vn 0.9738 0.2274 0.0047
vn 0.9292 0.3695 0.0020
vn 0.8621 0.5066 0.0099
vn 0.9577 0.0518 0.2830
vn 0.9244 0.3775 0.0538
vn 0.3840 0.9205 0.0724
vn 0.9276 0.3378 0.1595
vn 0.1317 0.4863 0.8638
vn 0.2740 0.7221 0.6352
# 162 vertex normals

vt 0.6288 0.4848 0.0000
vt 0.5883 0.4206 0.0000
vt 0.6503 0.4254 0.0000
vt 0.5082 0.0321 0.0000
vt 0.5137 0.0947 0.0000
vt 0.4709 0.0600 0.0000
vt 0.4866 0.0100 0.0000
vt 0.5157 0.4861 0.0000
vt 0.3484 0.0396 0.0000
vt 0.6181 0.5732 0.0000
vt 0.6356 0.5174 0.0000
vt 0.6554 0.6595 0.0000
vt 0.5473 0.5316 0.0000
vt 0.5285 0.5066 0.0000
vt 0.4515 0.5192 0.0000
vt 0.5592 0.6132 0.0000
vt 0.4137 0.5352 0.0000
vt 0.4003 0.4499 0.0000
vt 0.4474 0.4304 0.0000
vt 0.3345 0.0604 0.0000
vt 0.4225 0.0878 0.0000
vt 0.5919 0.6821 0.0000
vt 0.4072 0.5921 0.0000
vt 0.3935 0.5901 0.0000
vt 0.3281 0.5994 0.0000
vt 0.3715 0.6851 0.0000
vt 0.6757 0.6749 0.0000
vt 0.6272 0.7849 0.0000
vt 0.5978 0.7693 0.0000
vt 0.5174 0.7177 0.0000
vt 0.4836 0.6641 0.0000
vt 0.4949 0.7895 0.0000
vt 0.4093 0.7467 0.0000
vt 0.6059 0.8432 0.0000
vt 0.5618 0.8450 0.0000
vt 0.4037 0.8319 0.0000
vt 0.3420 0.7995 0.0000
vt 0.2919 0.7433 0.0000
vt 0.5878 0.9102 0.0000
vt 0.4901 0.8808 0.0000
vt 0.5469 0.9396 0.0000
vt 0.4538 0.9295 0.0000
vt 0.3909 0.9400 0.0000
vt 0.3483 0.8594 0.0000
vt 0.2985 0.8807 0.0000
vt 0.3143 0.8355 0.0000
vt 0.2694 0.8157 0.0000
vt 0.5400 0.9804 0.0000
vt 0.5011 0.9900 0.0000
vt 0.4259 0.9696 0.0000
vt 0.7064 0.1158 0.0000
vt 0.6683 0.1478 0.0000
vt 0.6574 0.1226 0.0000
vt 0.5065 0.1178 0.0000
vt 0.4586 0.1710 0.0000
vt 0.5345 0.1599 0.0000
vt 0.6583 0.3559 0.0000
vt 0.5634 0.3695 0.0000
vt 0.5370 0.4416 0.0000
vt 0.5401 0.4024 0.0000
vt 0.4931 0.3921 0.0000
vt 0.3512 0.1310 0.0000
vt 0.3833 0.1580 0.0000
vt 0.2450 0.4800 0.0000
vt 0.2770 0.5613 0.0000
vt 0.2213 0.5174 0.0000
vt 0.3250 0.5038 0.0000
vt 0.3908 0.3710 0.0000
vt 0.3168 0.1104 0.0000
vt 0.2890 0.6340 0.0000
vt 0.2195 0.0280 0.0000
vt 0.2923 0.6933 0.0000
vt 0.2388 0.1104 0.0000
vt 0.1782 0.0858 0.0000
vt 0.2714 0.6890 0.0000
vt 0.1594 0.0306 0.0000
vt 0.0919 0.0306 0.0000
vt 0.2638 0.7411 0.0000
vt 0.0560 0.1089 0.0000
vt 0.0484 0.0100 0.0000
vt 0.0112 0.0968 0.0000
vt 0.0100 0.0234 0.0000
vt 0.8611 0.0915 0.0000
vt 0.8869 0.1615 0.0000
vt 0.8209 0.0911 0.0000
vt 0.8062 0.1674 0.0000
vt 0.7513 0.1254 0.0000
vt 0.7573 0.2076 0.0000
vt 0.7348 0.2105 0.0000
vt 0.2255 0.9079 0.0000
vt 0.2587 0.9006 0.0000
vt 0.2618 0.9280 0.0000
vt 0.2381 0.8572 0.0000
vt 0.2776 0.9108 0.0000
vt 0.6707 0.2000 0.0000
vt 0.3395 0.9188 0.0000
vt 0.3164 0.9374 0.0000
vt 0.5632 0.3471 0.0000
vt 0.5377 0.3109 0.0000
vt 0.5044 0.2794 0.0000
vt 0.5362 0.2805 0.0000
vt 0.5459 0.3699 0.0000
vt 0.3710 0.2402 0.0000
vt 0.4274 0.3360 0.0000
vt 0.7307 0.8287 0.0000
vt 0.7283 0.8925 0.0000
vt 0.6747 0.8530 0.0000
vt 0.6765 0.8952 0.0000
vt 0.3052 0.1570 0.0000
vt 0.1979 0.6641 0.0000
vt 0.2726 0.1948 0.0000
vt 0.2406 0.1847 0.0000
vt 0.1390 0.1407 0.0000
vt 0.2176 0.7715 0.0000
vt 0.1307 0.2018 0.0000
vt 0.0618 0.1438 0.0000
vt 0.2048 0.8748 0.0000
vt 0.1577 0.7953 0.0000
vt 0.0121 0.1615 0.0000
vt 0.8799 0.2272 0.0000
vt 0.7356 0.2590 0.0000
vt 0.6778 0.2389 0.0000
vt 0.6302 0.2747 0.0000
vt 0.6475 0.2763 0.0000
vt 0.9124 0.9781 0.0000
vt 0.8952 0.9792 0.0000
vt 0.9235 0.8640 0.0000
vt 0.4937 0.2285 0.0000
vt 0.9454 0.8572 0.0000
vt 0.8930 0.8796 0.0000
vt 0.4048 0.3334 0.0000
vt 0.3770 0.3097 0.0000
vt 0.4305 0.2665 0.0000
vt 0.8175 0.8470 0.0000
vt 0.8209 0.9062 0.0000
vt 0.8695 0.7838 0.0000
vt 0.9197 0.8183 0.0000
vt 0.2612 0.2271 0.0000
vt 0.3964 0.2510 0.0000
vt 0.8067 0.8157 0.0000
vt 0.1762 0.6053 0.0000
vt 0.1362 0.5525 0.0000
vt 0.7333 0.7889 0.0000
vt 0.1215 0.6851 0.0000
vt 0.1460 0.6127 0.0000
vt 0.0963 0.5944 0.0000
vt 0.1943 0.2368 0.0000
vt 0.0624 0.2332 0.0000
vt 0.1234 0.7467 0.0000
vt 0.0712 0.1853 0.0000
vt 0.0351 0.2118 0.0000
vt 0.1020 0.8373 0.0000
vt 0.9283 0.3039 0.0000
vt 0.8474 0.3296 0.0000
vt 0.9153 0.2716 0.0000
vt 0.7632 0.3114 0.0000
vt 0.7237 0.2930 0.0000
vt 0.7053 0.2862 0.0000
vt 0.6927 0.3152 0.0000
vt 0.6615 0.2733 0.0000
vt 0.1536 0.8822 0.0000
vt 0.1282 0.8763 0.0000
vt 0.7431 0.3506 0.0000
vt 0.7087 0.3364 0.0000
vt 0.3098 0.3480 0.0000
vt 0.8426 0.7703 0.0000
vt 0.7769 0.7158 0.0000
vt 0.8412 0.7261 0.0000
vt 0.0493 0.5707 0.0000
vt 0.2165 0.2938 0.0000
vt 0.1240 0.3025 0.0000
vt 0.0682 0.7602 0.0000
vt 0.0279 0.6587 0.0000
vt 0.0401 0.7372 0.0000
vt 0.0433 0.8279 0.0000
vt 0.0505 0.3642 0.0000
vt 0.9477 0.4335 0.0000
vt 0.8851 0.4095 0.0000
vt 0.8098 0.3909 0.0000
vt 0.7341 0.3751 0.0000
vt 0.7669 0.3683 0.0000
vt 0.7960 0.4116 0.0000
vt 0.8163 0.4476 0.0000
vt 0.7823 0.4367 0.0000
vt 0.8355 0.4426 0.0000
vt 0.7558 0.4300 0.0000
vt 0.9513 0.7414 0.0000
vt 0.3223 0.3691 0.0000
vt 0.3320 0.3736 0.0000
vt 0.3127 0.3905 0.0000
vt 0.3530 0.3940 0.0000
vt 0.1925 0.3535 0.0000
vt 0.8837 0.7250 0.0000
vt 0.8575 0.6666 0.0000
vt 0.9534 0.6964 0.0000
vt 0.7857 0.6704 0.0000
vt 0.9313 0.5453 0.0000
vt 0.7942 0.6140 0.0000
vt 0.0114 0.5994 0.0000
vt 0.9717 0.5539 0.0000
vt 0.8561 0.5358 0.0000
vt 0.8346 0.5647 0.0000
vt 0.7793 0.5266 0.0000
vt 0.0107 0.7460 0.0000
vt 0.7661 0.6137 0.0000
vt 0.1699 0.3800 0.0000
vt 0.9237 0.4441 0.0000
vt 0.8262 0.4975 0.0000
vt 0.0311 0.8015 0.0000
vt 0.7769 0.4609 0.0000
vt 0.0100 0.8129 0.0000
vt 0.6891 0.2662 0.0000
vt 0.8147 0.9373 0.0000
# 213 texture coords

o Rock_6
g Rock_6
usemtl Rock_6
s 1
f 1/1/1 2/2/2 3/3/3 
f 1/4/1 3/5/3 4/6/4 
f 5/7/5 1/4/1 4/6/4 
f 1/1/1 6/8/6 2/2/2 
f 7/9/7 5/7/5 4/6/4 
f 8/10/8 5/11/5 7/12/7 
f 1/1/1 5/11/5 9/13/9 
f 10/14/10 9/13/9 11/15/11 
f 12/16/12 9/13/9 5/11/5 
f 5/11/5 8/10/8 12/16/12 
f 6/8/6 1/1/1 10/14/10 
f 13/17/13 11/15/11 9/13/9 
f 11/15/11 14/18/14 15/19/15 
f 11/15/11 13/17/13 14/18/14 
f 15/19/15 6/8/6 11/15/11 
f 16/20/16 7/9/7 17/21/17 
f 4/6/4 17/21/17 7/9/7 
f 8/10/8 7/12/7 18/22/18 
f 8/10/8 18/22/18 12/16/12 
f 19/23/19 9/13/9 12/16/12 
f 20/24/20 21/25/21 13/17/13 
f 22/26/22 20/24/20 19/23/19 
f 13/17/13 9/13/9 19/23/19 
f 18/22/18 16/27/16 23/28/23 
f 16/27/16 18/22/18 7/12/7 
f 24/29/24 18/22/18 23/28/23 
f 12/16/12 18/22/18 25/30/25 
f 25/30/25 26/31/26 12/16/12 
f 12/16/12 26/31/26 19/23/19 
f 19/23/19 26/31/26 22/26/22 
f 24/29/24 27/32/27 25/30/25 
f 18/22/18 24/29/24 25/30/25 
f 25/30/25 22/26/22 26/31/26 
f 25/30/25 28/33/28 22/26/22 
f 25/30/25 27/32/27 28/33/28 
f 24/29/24 23/28/23 29/34/29 
f 24/29/24 30/35/30 27/32/27 
f 29/34/29 30/35/30 24/29/24 
f 28/33/28 27/32/27 31/36/31 
f 32/37/32 28/33/28 31/36/31 
f 33/38/33 22/26/22 32/37/32 
f 32/37/32 22/26/22 28/33/28 
f 29/34/29 34/39/34 30/35/30 
f 35/40/35 30/35/30 36/41/36 
f 30/35/30 34/39/34 36/41/36 
f 30/35/30 35/40/35 27/32/27 
f 37/42/37 31/36/31 35/40/35 
f 38/43/38 31/36/31 37/42/37 
f 27/32/27 35/40/35 31/36/31 
f 39/44/39 40/45/40 41/46/41 
f 32/37/32 31/36/31 39/44/39 
f 42/47/42 32/37/32 41/46/41 
f 39/44/39 41/46/41 32/37/32 
f 43/48/43 44/49/44 36/41/36 
f 37/42/37 44/49/44 45/50/45 
f 37/42/37 36/41/36 44/49/44 
f 37/42/37 35/40/35 36/41/36 
f 38/43/38 39/44/39 31/36/31 
f 45/50/45 38/43/38 37/42/37 
f 38/51/38 46/52/46 47/53/47 
f 48/54/48 4/6/4 3/5/3 
f 49/55/49 4/6/4 48/54/48 
f 3/5/3 50/56/50 48/54/48 
f 50/57/50 3/3/3 51/58/51 
f 51/58/51 3/3/3 2/2/2 
f 52/59/52 53/60/53 2/2/2 
f 53/60/53 52/59/52 54/61/54 
f 15/19/15 54/61/54 6/8/6 
f 55/62/55 17/21/17 56/63/56 
f 17/21/17 49/55/49 56/63/56 
f 17/21/17 4/6/4 49/55/49 
f 57/64/57 58/65/58 59/66/59 
f 57/64/57 14/67/14 58/65/58 
f 57/68/57 54/61/54 15/19/15 
f 15/19/15 14/18/14 57/68/57 
f 16/20/16 55/62/55 60/69/60 
f 16/20/16 17/21/17 55/62/55 
f 61/70/61 58/65/58 21/25/21 
f 21/25/21 58/65/58 14/67/14 
f 14/67/14 13/17/13 21/25/21 
f 16/20/16 60/69/60 23/71/23 
f 61/70/61 21/25/21 62/72/62 
f 63/73/63 23/71/23 60/69/60 
f 63/73/63 64/74/64 23/71/23 
f 62/72/62 65/75/65 61/70/61 
f 65/75/65 62/72/62 33/38/33 
f 22/26/22 62/72/62 21/25/21 
f 33/38/33 62/72/62 22/26/22 
f 64/74/64 29/76/29 23/71/23 
f 64/74/64 34/77/34 29/76/29 
f 42/47/42 66/78/66 33/38/33 
f 65/75/65 33/38/33 66/78/66 
f 32/37/32 42/47/42 33/38/33 
f 67/79/67 36/80/36 34/77/34 
f 68/81/68 43/82/43 67/79/67 
f 43/82/43 36/80/36 67/79/67 
f 43/83/43 68/84/68 44/85/44 
f 44/85/44 69/86/69 45/87/45 
f 70/88/70 45/87/45 69/86/69 
f 70/88/70 71/89/71 45/87/45 
f 38/51/38 45/87/45 71/89/71 
f 38/51/38 71/89/71 46/52/46 
f 72/90/72 73/91/73 74/92/74 
f 40/45/40 75/93/75 42/47/42 
f 73/91/73 76/94/76 74/92/74 
f 46/52/46 71/89/71 74/95/74 
f 42/47/42 41/46/41 40/45/40 
f 47/96/47 40/45/40 39/44/39 
f 68/84/68 69/86/69 44/85/44 
f 46/97/46 74/92/74 76/94/76 
f 77/98/77 50/57/50 51/58/51 
f 78/99/78 79/100/79 80/101/80 
f 79/100/79 81/102/81 54/61/54 
f 56/63/56 49/55/49 82/103/82 
f 79/100/79 54/61/54 83/104/83 
f 84/105/84 83/106/83 59/107/59 
f 57/108/57 59/107/59 83/106/83 
f 83/104/83 54/61/54 57/68/57 
f 85/109/85 55/62/55 56/63/56 
f 60/69/60 55/62/55 85/109/85 
f 60/69/60 85/109/85 63/73/63 
f 58/65/58 86/110/86 59/66/59 
f 65/75/65 86/110/86 58/65/58 
f 65/75/65 58/65/58 61/70/61 
f 85/109/85 87/111/87 88/112/88 
f 85/109/85 88/112/88 89/113/89 
f 85/109/85 89/113/89 63/73/63 
f 63/73/63 89/113/89 64/74/64 
f 90/114/90 65/75/65 66/78/66 
f 86/110/86 65/75/65 90/114/90 
f 91/115/91 89/113/89 88/112/88 
f 91/115/91 92/116/92 89/113/89 
f 66/78/66 42/47/42 90/114/90 
f 64/74/64 89/113/89 34/77/34 
f 92/116/92 34/77/34 89/113/89 
f 34/77/34 92/116/92 67/79/67 
f 93/117/93 94/118/94 75/93/75 
f 75/93/75 94/118/94 90/114/90 
f 42/47/42 75/93/75 90/114/90 
f 67/79/67 92/116/92 95/119/95 
f 95/119/95 68/81/68 67/79/67 
f 70/88/70 95/120/95 96/121/96 
f 95/120/95 70/88/70 69/86/69 
f 68/84/68 95/120/95 69/86/69 
f 70/88/70 96/121/96 71/89/71 
f 72/122/72 74/95/74 96/121/96 
f 71/89/71 96/121/96 74/95/74 
f 97/123/97 50/57/50 77/98/77 
f 97/123/97 98/124/98 50/57/50 
f 98/125/98 97/126/97 99/127/99 
f 77/98/77 80/101/80 97/123/97 
f 49/55/49 98/128/98 82/103/82 
f 82/129/82 98/125/98 99/127/99 
f 99/127/99 97/126/97 100/130/100 
f 101/131/101 102/132/102 100/133/100 
f 103/134/103 79/135/79 83/106/83 
f 100/130/100 79/135/79 103/134/103 
f 79/135/79 100/130/100 97/126/97 
f 103/134/103 104/136/104 101/137/101 
f 103/134/103 101/137/101 100/130/100 
f 103/134/103 83/106/83 84/105/84 
f 85/109/85 56/63/56 105/138/105 
f 105/138/105 56/63/56 82/103/82 
f 102/132/102 99/139/99 100/133/100 
f 84/105/84 106/140/106 103/134/103 
f 59/66/59 107/141/107 108/142/108 
f 84/105/84 59/107/59 108/143/108 
f 108/143/108 106/140/106 84/105/84 
f 105/138/105 87/111/87 85/109/85 
f 88/112/88 87/111/87 105/138/105 
f 107/141/107 59/66/59 86/110/86 
f 109/144/109 107/141/107 86/110/86 
f 110/145/110 108/142/108 107/141/107 
f 110/145/110 107/141/107 109/144/109 
f 108/142/108 110/145/110 111/146/111 
f 105/138/105 91/115/91 88/112/88 
f 112/147/112 91/115/91 105/138/105 
f 86/110/86 94/118/94 109/144/109 
f 113/148/113 91/115/91 112/147/112 
f 90/114/90 94/118/94 86/110/86 
f 114/149/114 109/144/109 94/118/94 
f 91/115/91 115/150/115 92/116/92 
f 116/151/116 115/150/115 91/115/91 
f 116/151/116 91/115/91 113/148/113 
f 117/152/117 114/149/114 94/118/94 
f 92/116/92 115/150/115 95/119/95 
f 115/150/115 116/151/116 95/119/95 
f 113/153/113 118/154/118 116/155/116 
f 96/121/96 95/120/95 119/156/119 
f 119/156/119 95/120/95 116/155/116 
f 118/154/118 119/156/119 116/155/116 
f 120/157/120 96/121/96 119/156/119 
f 121/158/121 122/159/122 93/160/93 
f 93/117/93 122/161/122 94/118/94 
f 94/118/94 122/161/122 123/162/123 
f 124/163/124 123/164/123 119/156/119 
f 82/103/82 99/139/99 125/165/125 
f 99/139/99 102/132/102 125/165/125 
f 103/134/103 126/166/126 104/136/104 
f 103/134/103 106/140/106 126/166/126 
f 127/167/127 128/168/128 126/166/126 
f 127/167/127 126/166/126 106/140/106 
f 106/140/106 108/143/108 127/167/127 
f 108/142/108 111/146/111 127/169/127 
f 125/165/125 129/170/129 82/103/82 
f 82/103/82 129/170/129 105/138/105 
f 105/138/105 129/170/129 112/147/112 
f 130/171/130 112/147/112 129/170/129 
f 110/145/110 109/144/109 111/146/111 
f 111/146/111 109/144/109 131/172/131 
f 111/146/111 131/172/131 132/173/132 
f 132/173/132 131/172/131 133/174/133 
f 130/171/130 113/148/113 112/147/112 
f 114/149/114 117/152/117 131/172/131 
f 109/144/109 114/149/114 131/172/131 
f 117/152/117 134/175/134 131/172/131 
f 135/176/135 113/148/113 130/171/130 
f 135/177/135 136/178/136 113/153/113 
f 136/178/136 137/179/137 118/154/118 
f 118/154/118 113/153/113 136/178/136 
f 117/180/117 124/163/124 138/181/138 
f 138/181/138 118/154/118 137/179/137 
f 139/182/139 140/183/140 141/184/141 
f 137/179/137 142/185/142 139/182/139 
f 138/181/138 139/182/139 141/184/141 
f 134/186/134 117/180/117 138/181/138 
f 118/154/118 138/181/138 119/156/119 
f 101/137/101 104/136/104 143/187/143 
f 144/188/144 125/165/125 102/132/102 
f 145/189/145 146/190/146 144/188/144 
f 145/189/145 143/191/143 146/190/146 
f 147/192/147 125/165/125 144/188/144 
f 126/166/126 148/193/148 104/136/104 
f 128/168/128 148/193/148 126/166/126 
f 104/136/104 148/193/148 143/187/143 
f 149/194/149 146/195/146 148/193/148 
f 146/195/146 143/187/143 148/193/148 
f 150/196/150 128/168/128 127/167/127 
f 149/194/149 148/193/148 128/168/128 
f 149/194/149 128/168/128 150/196/150 
f 129/170/129 125/165/125 147/192/147 
f 147/192/147 144/188/144 146/190/146 
f 146/195/146 149/194/149 151/197/151 
f 149/194/149 150/196/150 152/198/152 
f 150/199/150 127/169/127 111/146/111 
f 150/199/150 111/146/111 132/173/132 
f 129/170/129 147/192/147 130/171/130 
f 153/200/153 146/195/146 151/197/151 
f 151/197/151 149/194/149 154/201/154 
f 155/202/155 152/198/152 156/203/156 
f 152/198/152 155/202/155 149/194/149 
f 155/202/155 154/201/154 149/194/149 
f 132/173/132 133/174/133 156/204/156 
f 150/196/150 132/205/132 152/198/152 
f 152/198/152 132/205/132 156/203/156 
f 135/176/135 147/192/147 153/206/153 
f 151/197/151 135/177/135 153/200/153 
f 154/201/154 157/207/157 151/197/151 
f 142/185/142 157/207/157 154/201/154 
f 154/201/154 155/202/155 158/208/158 
f 158/208/158 140/183/140 142/185/142 
f 158/208/158 142/185/142 154/201/154 
f 159/209/159 133/174/133 131/172/131 
f 134/186/134 141/184/141 160/210/160 
f 147/192/147 135/176/135 130/171/130 
f 151/197/151 157/207/157 135/177/135 
f 136/178/136 135/177/135 157/207/157 
f 136/178/136 157/207/157 142/185/142 
f 137/179/137 136/178/136 142/185/142 
f 160/210/160 140/183/140 156/203/156 
f 141/184/141 134/186/134 138/181/138 
f 160/211/160 156/204/156 159/209/159 
f 131/172/131 134/175/134 159/209/159 
f 159/209/159 156/204/156 133/174/133 
f 160/210/160 141/184/141 140/183/140 
f 123/164/123 122/159/122 120/157/120 
f 123/162/123 117/152/117 94/118/94 
f 124/163/124 117/180/117 123/164/123 
f 124/163/124 119/156/119 138/181/138 
f 139/182/139 142/185/142 140/183/140 
f 139/182/139 138/181/138 137/179/137 
f 72/122/72 96/121/96 161/212/161 
f 93/117/93 75/93/75 73/91/73 
f 73/91/73 75/93/75 40/45/40 
f 76/94/76 40/45/40 46/97/46 
f 73/91/73 72/90/72 162/117/162 
f 40/45/40 76/94/76 73/91/73 
f 121/158/121 96/121/96 120/157/120 
f 93/117/93 162/117/162 72/90/72 
f 121/158/121 161/212/161 96/121/96 
f 93/160/93 161/212/161 121/158/121 
f 120/157/120 122/159/122 121/158/121 
f 120/157/120 119/156/119 123/164/123 
f 47/96/47 39/44/39 38/43/38 
f 47/96/47 46/97/46 40/45/40 
f 20/24/20 22/26/22 21/25/21 
f 20/24/20 13/17/13 19/23/19 
f 10/14/10 1/1/1 9/13/9 
f 10/14/10 11/15/11 6/8/6 
f 80/101/80 77/98/77 78/99/78 
f 80/213/80 79/135/79 97/126/97 
f 53/60/53 54/61/54 81/102/81 
f 52/59/52 2/2/2 6/8/6 
f 52/59/52 6/8/6 54/61/54 
f 81/102/81 78/99/78 77/98/77 
f 53/60/53 51/58/51 2/2/2 
f 53/60/53 81/102/81 51/58/51 
f 77/98/77 51/58/51 81/102/81 
f 78/99/78 81/102/81 79/100/79 
f 158/208/158 155/202/155 156/203/156 
f 158/208/158 156/203/156 140/183/140 
f 147/192/147 146/190/146 153/206/153 
f 102/132/102 145/189/145 144/188/144 
f 48/54/48 50/56/50 98/128/98 
f 48/54/48 98/128/98 49/55/49 
f 159/209/159 134/175/134 160/211/160 
f 93/117/93 73/91/73 162/117/162 
f 161/212/161 93/160/93 72/122/72 
f 145/189/145 102/132/102 101/131/101 
f 145/189/145 101/131/101 143/191/143 
# 320 faces

