# 3ds Max Wavefront OBJ Exporter v0.97b - (c)2007 guruware
# File Created: 22.02.2020 01:32:21

mtllib Rock_2.mtl

#
# object Rock_2
#

v  -36.0217 -2.1643 10.0518
v  -34.3381 -7.7432 -5.2034
v  -35.2845 -12.6077 8.8225
v  -35.5109 10.1954 7.2635
v  -34.8783 2.1507 -2.2408
v  -30.4732 -12.1149 -14.0573
v  -22.5839 -15.1996 -18.3955
v  -28.5208 -20.1972 -12.6905
v  -30.2959 1.7429 -18.6724
v  -26.2065 -1.5225 -18.6662
v  -33.1403 1.3789 -12.1628
v  -33.2972 -14.5585 -9.8949
v  -28.1204 3.7778 -19.7692
v  -26.0355 18.8938 -13.5337
v  -24.3449 12.0103 -19.4122
v  -32.9976 13.2275 -11.8930
v  -31.4407 21.7040 -7.4966
v  -22.5816 23.2778 -6.2349
v  -31.0708 -20.8351 -3.8201
v  -22.3919 -23.3083 -10.8656
v  -25.3536 -22.0645 -3.7121
v  -34.5824 7.1433 -0.1534
v  -34.7861 13.4778 -4.7978
v  -35.0617 20.2884 5.5518
v  -29.1481 21.4902 5.1686
v  -30.0304 -20.2278 10.8311
v  -31.5448 -17.3765 14.3288
v  -32.4672 -7.7320 14.8785
v  -33.8427 9.2997 12.7274
v  -18.8084 20.3966 14.1151
v  -33.5292 19.9417 12.5209
v  -19.3462 -17.9548 16.3897
v  -24.2152 -3.0820 16.7772
v  -32.3806 1.5108 16.1716
v  -22.9982 6.7937 17.9209
v  -25.3040 11.6836 15.3190
v  -23.9187 17.9370 15.1593
v  -9.8379 -22.5313 -13.2917
v  -16.3719 -6.1151 -17.9687
v  -4.1040 -16.0776 -15.2358
v  -2.9076 1.6699 -18.3511
v  -17.9519 7.3279 -19.7559
v  -15.6218 14.7935 -19.1120
v  -2.5285 18.7628 -12.2883
v  -12.5318 19.0968 -16.6248
v  -12.8164 21.2258 -12.7687
v  1.1918 10.1471 -17.0429
v  -6.1642 8.5368 -17.9359
v  -11.3707 -24.1344 -8.2109
v  -9.8962 -24.4977 -2.3825
v  -16.1077 -22.7815 5.8254
v  -10.4496 25.9680 -9.7729
v  -13.9008 23.5442 -2.6212
v  -9.0050 -21.8310 12.0432
v  -17.1279 21.6890 7.2923
v  -7.4506 23.6115 7.2065
v  -10.6134 -7.9241 18.1173
v  -5.3023 -18.8092 17.6112
v  -15.4997 0.0893 18.2811
v  -0.0578 -0.1660 19.8402
v  -10.6037 8.1567 19.0369
v  -21.3171 13.6101 18.4715
v  -15.3817 15.4511 17.1455
v  -11.0277 18.5715 18.1335
v  -3.8144 -9.5006 -16.2361
v  8.0929 -5.8842 -15.5001
v  7.9559 0.5768 -15.2241
v  -4.1185 23.8011 -9.8686
v  -4.2318 18.2373 -16.3038
v  9.0520 -23.4371 -12.4842
v  4.8839 -26.3238 -7.5215
v  -1.9844 23.9269 -5.5196
v  0.4946 22.6211 4.2924
v  5.1416 22.4633 -8.9787
v  -5.2116 -24.1049 4.1922
v  -0.9851 21.4025 8.5424
v  -5.2395 21.5499 16.5160
v  13.8316 -16.0838 20.6041
v  6.3290 -10.5845 19.9838
v  0.8363 -24.1154 12.8206
v  2.2997 11.5369 19.6444
v  4.4267 19.5499 19.9216
v  8.9728 -14.6411 -14.1421
v  19.7796 -3.2308 -13.3801
v  11.2062 6.9713 -14.8922
v  10.3934 16.7672 -10.9035
v  18.9314 17.6718 -7.4378
v  8.0384 -26.0453 0.7515
v  16.7675 -26.5219 -6.0065
v  19.8728 17.6495 -0.1529
v  6.3038 21.0107 3.7942
v  14.2210 -25.4398 6.9018
v  11.8864 18.4013 18.1892
v  16.4537 17.1271 10.2230
v  17.0237 -24.1415 18.2447
v  11.8876 -4.2700 21.4163
v  7.9368 6.0490 20.8900
v  15.2357 15.3330 20.6530
v  26.9021 -22.5650 -9.3750
v  27.6224 -7.9890 -11.2839
v  28.0783 -15.1331 -10.0512
v  18.2436 2.5926 -13.5905
v  22.1339 7.2117 -10.4037
v  27.0545 -25.4592 -4.0988
v  21.4747 -25.0588 -8.2092
v  31.3662 12.0682 -5.2505
v  26.9701 -25.4448 3.3640
v  25.5327 -24.7518 14.5502
v  19.8501 17.0856 7.7752
v  25.2892 -19.6037 20.0461
v  27.9931 -8.9201 20.0138
v  28.2483 -5.4813 19.7145
v  24.7393 4.8240 19.9178
v  29.2861 13.2805 16.0747
v  30.6394 -19.8518 -6.6664
v  29.3525 1.1708 -10.5193
v  29.2880 -12.2050 -2.7778
v  31.8472 -14.6066 -2.4778
v  29.0342 -8.5002 8.1502
v  32.5353 -2.1582 -5.8819
v  29.9962 -9.2148 -8.7189
v  32.1500 -1.1002 -8.1198
v  33.9300 3.2733 -6.3717
v  35.1165 7.6314 -5.3184
v  32.5186 13.3490 -1.5121
v  28.6656 -18.9371 7.1861
v  30.4852 -14.2641 8.0583
v  29.5189 -10.2123 16.3041
v  32.7233 2.6974 10.2516
v  34.1015 7.8842 7.1559
v  33.9100 9.5612 -3.1085
v  32.9749 13.2955 7.1343
v  32.3502 7.7666 14.6918
v  31.4227 2.5954 19.1513
v  27.4298 9.6048 18.4111
v  29.0911 7.8489 15.8299
v  31.2467 5.1351 15.4672
v  33.2110 9.9149 6.8398
# 138 vertices

vn -0.9926 -0.0249 0.1185
vn -0.9907 -0.0438 -0.1290
vn -0.9623 -0.2563 0.0911
vn -0.9973 0.0395 0.0620
vn -0.9916 0.0228 -0.1272
vn -0.6677 -0.2094 -0.7144
vn -0.1128 -0.3149 -0.9424
vn -0.5102 -0.6557 -0.5566
vn -0.7659 -0.0651 -0.6397
vn 0.0283 -0.0900 -0.9955
vn -0.9586 -0.0209 -0.2838
vn -0.9292 -0.2531 -0.2694
vn -0.3130 0.1191 -0.9423
vn -0.3122 0.6605 -0.6829
vn -0.3198 0.3758 -0.8698
vn -0.8223 0.2477 -0.5123
vn -0.5677 0.7725 -0.2846
vn -0.1316 0.9838 -0.1218
vn -0.7291 -0.6833 -0.0391
vn -0.1530 -0.9030 -0.4015
vn -0.1674 -0.9830 0.0748
vn -0.9906 0.0034 -0.1367
vn -0.9773 0.1024 -0.1853
vn -0.8701 0.4925 0.0181
vn -0.0989 0.9878 0.1201
vn -0.4328 -0.8727 0.2261
vn -0.4395 -0.3455 0.8292
vn -0.4433 -0.0993 0.8909
vn -0.6942 0.1364 0.7067
vn -0.1124 0.9323 0.3437
vn -0.5226 0.6179 0.5875
vn -0.1363 -0.3836 0.9134
vn -0.1403 -0.1213 0.9827
vn -0.5043 0.0506 0.8620
vn -0.1990 0.0280 0.9796
vn -0.3907 0.1440 0.9092
vn -0.2215 0.3688 0.9027
vn 0.0275 -0.6753 -0.7371
vn 0.0864 -0.0843 -0.9927
vn 0.0932 -0.2364 -0.9672
vn 0.1452 -0.0483 -0.9882
vn 0.0514 -0.0629 -0.9967
vn 0.0553 0.2401 -0.9692
vn 0.1790 0.7402 -0.6481
vn -0.0161 0.7204 -0.6934
vn -0.0866 0.7753 -0.6256
vn 0.2480 0.1647 -0.9546
vn 0.1511 0.0561 -0.9869
vn -0.0894 -0.9842 -0.1526
vn -0.1307 -0.9900 0.0536
vn -0.1241 -0.9804 0.1532
vn 0.0230 0.9730 -0.2295
vn -0.1813 0.9665 0.1815
vn -0.1355 -0.9147 0.3807
vn -0.1025 0.9821 0.1580
vn -0.0075 0.9879 0.1548
vn -0.1193 -0.0805 0.9896
vn -0.1469 -0.3863 0.9106
vn -0.1105 -0.0702 0.9914
vn -0.1156 -0.0458 0.9922
vn -0.0865 0.0605 0.9944
vn -0.1837 0.2077 0.9608
vn -0.0761 0.1702 0.9825
vn -0.1744 0.2600 0.9497
vn 0.0987 -0.1730 -0.9800
vn 0.1685 -0.0993 -0.9807
vn 0.2087 0.0165 -0.9778
vn 0.2437 0.8852 -0.3964
vn 0.2345 0.4810 -0.8448
vn 0.0953 -0.4774 -0.8735
vn -0.0707 -0.9731 -0.2193
vn 0.1455 0.9870 0.0681
vn 0.1864 0.9785 0.0879
vn 0.2665 0.9217 -0.2817
vn -0.1264 -0.9822 0.1393
vn 0.1189 0.9753 0.1860
vn -0.0044 0.9303 0.3667
vn -0.0428 -0.1703 0.9845
vn -0.1388 -0.0843 0.9867
vn -0.1552 -0.9267 0.3424
vn -0.0769 0.0528 0.9956
vn 0.0480 0.6468 0.7611
vn 0.1567 -0.1557 -0.9753
vn 0.2183 -0.0238 -0.9756
vn 0.2804 0.2243 -0.9333
vn 0.2962 0.4317 -0.8520
vn 0.3762 0.7380 -0.5602
vn -0.0412 -0.9954 0.0867
vn 0.0547 -0.9937 -0.0980
vn 0.2919 0.9561 0.0243
vn 0.2700 0.9603 0.0698
vn -0.0051 -0.9958 0.0917
vn 0.2724 0.9426 0.1930
vn 0.2768 0.9571 0.0851
vn -0.0503 -0.7862 0.6159
vn 0.0005 -0.0101 0.9999
vn -0.0070 0.1184 0.9929
vn 0.0723 0.1698 0.9828
vn 0.3176 -0.3256 -0.8906
vn 0.3056 -0.1001 -0.9469
vn 0.3823 -0.1213 -0.9160
vn 0.2567 0.1445 -0.9556
vn 0.3334 0.3487 -0.8759
vn 0.3673 -0.9283 -0.0582
vn 0.1573 -0.8140 -0.5591
vn 0.4117 0.5020 -0.7605
vn 0.4768 -0.8744 0.0901
vn 0.5101 -0.8192 0.2620
vn 0.2506 0.9603 0.1228
vn 0.4073 -0.2827 0.8684
vn 0.2670 -0.0453 0.9626
vn 0.5731 -0.1026 0.8130
vn 0.1232 0.0728 0.9897
vn 0.4588 0.8067 0.3725
vn 0.9359 -0.2862 -0.2052
vn 0.4169 0.2351 -0.8780
vn 0.9997 -0.0215 0.0125
vn 0.9977 0.0682 -0.0055
vn 0.9808 -0.1787 0.0785
vn 0.9583 -0.2829 0.0394
vn 0.9190 -0.2538 -0.3017
vn 0.7647 -0.1044 -0.6358
vn 0.9197 -0.0705 -0.3862
vn 0.8224 0.0760 -0.5638
vn 0.5069 0.8553 -0.1075
vn 0.9318 -0.3232 0.1653
vn 0.9926 -0.0645 0.1033
vn 0.9781 -0.0737 0.1948
vn 0.9519 -0.2826 0.1187
vn 0.9921 -0.0681 0.1055
vn 0.8890 0.4555 -0.0462
vn 0.5325 0.8406 0.0994
vn 0.8799 0.1412 0.4536
vn 0.7492 -0.0564 0.6599
vn 0.4092 0.1930 0.8918
vn 0.5314 0.2263 0.8163
vn 0.9110 0.2167 0.3509
vn 0.9767 0.1894 0.1008
# 138 vertex normals

vt 0.7500 0.8270 0.0000
vt 0.6455 0.7840 0.0000
vt 0.7445 0.7547 0.0000
vt 0.7274 0.9122 0.0000
vt 0.6629 0.8535 0.0000
vt 0.9261 0.3125 0.0000
vt 0.8605 0.3135 0.0000
vt 0.8965 0.2574 0.0000
vt 0.9336 0.4180 0.0000
vt 0.9012 0.3999 0.0000
vt 0.5928 0.8441 0.0000
vt 0.5433 0.8427 0.0000
vt 0.5798 0.7468 0.0000
vt 0.6164 0.7347 0.0000
vt 0.9188 0.4344 0.0000
vt 0.9336 0.5485 0.0000
vt 0.9015 0.4934 0.0000
vt 0.9799 0.5027 0.0000
vt 0.5907 0.9267 0.0000
vt 0.4353 0.9763 0.0000
vt 0.4367 0.9142 0.0000
vt 0.4938 0.9452 0.0000
vt 0.9091 0.1923 0.0000
vt 0.8482 0.2414 0.0000
vt 0.8676 0.1924 0.0000
vt 0.6577 0.6875 0.0000
vt 0.5910 0.6869 0.0000
vt 0.6757 0.8888 0.0000
vt 0.6418 0.9312 0.0000
vt 0.6160 0.9900 0.0000
vt 0.9900 0.5690 0.0000
vt 0.7118 0.9820 0.0000
vt 0.3460 0.9497 0.0000
vt 0.8924 0.0902 0.0000
vt 0.7631 0.6919 0.0000
vt 0.7865 0.7170 0.0000
vt 0.7917 0.7872 0.0000
vt 0.7681 0.9077 0.0000
vt 0.2926 0.8683 0.0000
vt 0.2853 0.9706 0.0000
vt 0.3356 0.9900 0.0000
vt 0.7622 0.9820 0.0000
vt 0.8157 0.0512 0.0000
vt 0.9023 0.0588 0.0000
vt 0.0179 0.8352 0.0000
vt 0.0776 0.9379 0.0000
vt 0.0111 0.9223 0.0000
vt 0.1175 0.8843 0.0000
vt 0.1444 0.9462 0.0000
vt 0.7986 0.8536 0.0000
vt 0.2043 0.9701 0.0000
vt 0.1875 0.8845 0.0000
vt 0.2236 0.9100 0.0000
vt 0.2680 0.9007 0.0000
vt 0.7635 0.2694 0.0000
vt 0.8271 0.3809 0.0000
vt 0.7313 0.3223 0.0000
vt 0.7424 0.4468 0.0000
vt 0.8519 0.4688 0.0000
vt 0.8448 0.5224 0.0000
vt 0.5133 0.7746 0.0000
vt 0.5311 0.8504 0.0000
vt 0.5002 0.8512 0.0000
vt 0.7224 0.5098 0.0000
vt 0.7716 0.4908 0.0000
vt 0.8309 0.5607 0.0000
vt 0.7708 0.2317 0.0000
vt 0.7570 0.1928 0.0000
vt 0.7963 0.1319 0.0000
vt 0.4666 0.8306 0.0000
vt 0.4146 0.8528 0.0000
vt 0.7431 0.0923 0.0000
vt 0.3430 0.8658 0.0000
vt 0.3553 0.7972 0.0000
vt 0.0950 0.7824 0.0000
vt 0.0253 0.7328 0.0000
vt 0.7158 0.0492 0.0000
vt 0.1453 0.8251 0.0000
vt 0.1573 0.7138 0.0000
vt 0.2030 0.7968 0.0000
vt 0.2343 0.8754 0.0000
vt 0.2508 0.8375 0.0000
vt 0.2715 0.8086 0.0000
vt 0.7361 0.3681 0.0000
vt 0.6573 0.4039 0.0000
vt 0.6640 0.4492 0.0000
vt 0.4766 0.7874 0.0000
vt 0.5396 0.7900 0.0000
vt 0.7693 0.5614 0.0000
vt 0.6340 0.2822 0.0000
vt 0.6576 0.2397 0.0000
vt 0.4487 0.7695 0.0000
vt 0.3846 0.7436 0.0000
vt 0.4756 0.7206 0.0000
vt 0.7201 0.1510 0.0000
vt 0.3536 0.7489 0.0000
vt 0.2954 0.7711 0.0000
vt 0.0655 0.5989 0.0000
vt 0.0940 0.6578 0.0000
vt 0.6711 0.0977 0.0000
vt 0.2305 0.7094 0.0000
vt 0.2821 0.7019 0.0000
vt 0.6418 0.3432 0.0000
vt 0.5780 0.4315 0.0000
vt 0.6477 0.4963 0.0000
vt 0.6573 0.5706 0.0000
vt 0.5117 0.6788 0.0000
vt 0.5926 0.5850 0.0000
vt 0.6288 0.1870 0.0000
vt 0.5738 0.2424 0.0000
vt 0.4221 0.6069 0.0000
vt 0.3899 0.7013 0.0000
vt 0.4746 0.6167 0.0000
vt 0.5809 0.1519 0.0000
vt 0.2929 0.6522 0.0000
vt 0.3465 0.6214 0.0000
vt 0.5544 0.0743 0.0000
vt 0.0100 0.5698 0.0000
vt 0.1443 0.6226 0.0000
vt 0.2065 0.6618 0.0000
vt 0.2733 0.6241 0.0000
vt 0.5089 0.2910 0.0000
vt 0.5174 0.4032 0.0000
vt 0.5060 0.3515 0.0000
vt 0.5939 0.4711 0.0000
vt 0.5659 0.5095 0.0000
vt 0.5018 0.2439 0.0000
vt 0.5439 0.2662 0.0000
vt 0.4992 0.5547 0.0000
vt 0.4965 0.1894 0.0000
vt 0.4978 0.1077 0.0000
vt 0.3646 0.6002 0.0000
vt 0.0526 0.5160 0.0000
vt 0.1318 0.5064 0.0000
vt 0.1578 0.5069 0.0000
vt 0.2267 0.5414 0.0000
vt 0.3020 0.5244 0.0000
vt 0.4901 0.2504 0.0000
vt 0.4931 0.3074 0.0000
vt 0.4634 0.2750 0.0000
vt 0.5134 0.4690 0.0000
vt 0.3942 0.2275 0.0000
vt 0.4508 0.2275 0.0000
vt 0.4398 0.3304 0.0000
vt 0.4337 0.3078 0.0000
vt 0.3616 0.3546 0.0000
vt 0.4616 0.4036 0.0000
vt 0.4818 0.3511 0.0000
vt 0.4927 0.3962 0.0000
vt 0.4857 0.4568 0.0000
vt 0.4782 0.4098 0.0000
vt 0.4753 0.4923 0.0000
vt 0.4704 0.5251 0.0000
vt 0.4304 0.5154 0.0000
vt 0.3652 0.2756 0.0000
vt 0.3119 0.2328 0.0000
vt 0.3620 0.3123 0.0000
vt 0.3045 0.3401 0.0000
vt 0.3476 0.4381 0.0000
vt 0.3718 0.4731 0.0000
vt 0.4609 0.4745 0.0000
vt 0.4446 0.4893 0.0000
vt 0.4661 0.4426 0.0000
vt 0.4587 0.5161 0.0000
vt 0.3706 0.5103 0.0000
vt 0.3164 0.4755 0.0000
vt 0.4903 0.0555 0.0000
vt 0.2764 0.3489 0.0000
vt 0.2728 0.2701 0.0000
vt 0.2207 0.4925 0.0000
vt 0.2792 0.3736 0.0000
vt 0.2678 0.5330 0.0000
vt 0.2644 0.5099 0.0000
vt 0.2740 0.4879 0.0000
vt 0.3095 0.4553 0.0000
vt 0.2846 0.4353 0.0000
vt 0.2527 0.4885 0.0000
vt 0.3732 0.4879 0.0000
# 178 texture coords

o Rock_2
g Rock_2
usemtl Rock_2
s 1
f 1/1/1 2/2/2 3/3/3 
f 1/1/1 4/4/4 5/5/5 
f 6/6/6 7/7/7 8/8/8 
f 7/7/7 6/6/6 9/9/9 
f 9/9/9 10/10/10 7/7/7 
f 11/11/11 9/12/9 6/13/6 
f 11/11/11 6/13/6 12/14/12 
f 10/10/10 9/9/9 13/15/13 
f 14/16/14 15/17/15 13/15/13 
f 13/15/13 16/18/16 14/16/14 
f 13/15/13 9/9/9 16/18/16 
f 16/19/16 9/12/9 11/11/11 
f 17/20/17 18/21/18 14/22/14 
f 19/23/19 20/24/20 21/25/21 
f 20/24/20 19/23/19 8/8/8 
f 19/26/19 12/14/12 8/27/8 
f 8/27/8 12/14/12 6/13/6 
f 12/14/12 19/26/19 3/3/3 
f 2/2/2 12/14/12 3/3/3 
f 5/5/5 11/11/11 2/2/2 
f 5/5/5 2/2/2 1/1/1 
f 2/2/2 11/11/11 12/14/12 
f 22/28/22 16/19/16 11/11/11 
f 4/4/4 23/29/23 22/28/22 
f 11/11/11 5/5/5 22/28/22 
f 16/19/16 22/28/22 23/29/23 
f 23/29/23 17/30/17 16/19/16 
f 14/16/14 16/18/16 17/31/17 
f 17/30/17 23/29/23 24/32/24 
f 25/33/25 18/21/18 17/20/17 
f 19/23/19 21/25/21 26/34/26 
f 26/35/26 3/3/3 19/26/19 
f 26/35/26 27/36/27 3/3/3 
f 28/37/28 1/1/1 3/3/3 
f 5/5/5 4/4/4 22/28/22 
f 1/1/1 29/38/29 4/4/4 
f 30/39/30 25/33/25 31/40/31 
f 25/33/25 24/41/24 31/40/31 
f 24/32/24 23/29/23 4/4/4 
f 24/32/24 4/4/4 31/42/31 
f 4/4/4 29/38/29 31/42/31 
f 25/33/25 17/20/17 24/41/24 
f 26/34/26 32/43/32 27/44/27 
f 32/45/32 28/46/28 27/47/27 
f 33/48/33 34/49/34 28/46/28 
f 3/3/3 27/36/27 28/37/28 
f 28/37/28 34/50/34 1/1/1 
f 29/51/29 34/49/34 35/52/35 
f 36/53/36 29/51/29 35/52/35 
f 1/1/1 34/50/34 29/38/29 
f 31/40/31 37/54/37 30/39/30 
f 29/51/29 36/53/36 31/40/31 
f 31/40/31 36/53/36 37/54/37 
f 7/7/7 38/55/38 20/24/20 
f 7/7/7 39/56/39 40/57/40 
f 8/8/8 7/7/7 20/24/20 
f 10/10/10 41/58/41 39/56/39 
f 7/7/7 10/10/10 39/56/39 
f 42/59/42 41/58/41 10/10/10 
f 43/60/43 42/59/42 15/17/15 
f 10/10/10 13/15/13 42/59/42 
f 15/17/15 42/59/42 13/15/13 
f 44/61/44 45/62/45 46/63/46 
f 47/64/47 48/65/48 43/60/43 
f 45/62/45 14/22/14 46/63/46 
f 15/17/15 45/66/45 43/60/43 
f 14/16/14 45/66/45 15/17/15 
f 21/25/21 49/67/49 50/68/50 
f 21/25/21 20/24/20 49/67/49 
f 51/69/51 21/25/21 50/68/50 
f 18/21/18 52/70/52 46/63/46 
f 53/71/53 52/70/52 18/21/18 
f 18/21/18 46/63/46 14/22/14 
f 26/34/26 51/69/51 54/72/54 
f 21/25/21 51/69/51 26/34/26 
f 55/73/55 56/74/56 53/71/53 
f 55/73/55 53/71/53 18/21/18 
f 25/33/25 30/39/30 55/73/55 
f 25/33/25 55/73/55 18/21/18 
f 57/75/57 32/45/32 58/76/58 
f 54/72/54 58/77/58 32/43/32 
f 26/34/26 54/72/54 32/43/32 
f 28/46/28 32/45/32 57/75/57 
f 59/78/59 33/48/33 57/75/57 
f 57/75/57 33/48/33 28/46/28 
f 59/78/59 60/79/60 61/80/61 
f 62/81/62 61/80/61 63/82/63 
f 59/78/59 61/80/61 35/52/35 
f 62/81/62 35/52/35 61/80/61 
f 35/52/35 33/48/33 59/78/59 
f 35/52/35 34/49/34 33/48/33 
f 62/81/62 36/53/36 35/52/35 
f 64/83/64 37/54/37 63/82/63 
f 37/54/37 64/83/64 30/39/30 
f 62/81/62 37/54/37 36/53/36 
f 37/54/37 62/81/62 63/82/63 
f 38/55/38 49/67/49 20/24/20 
f 40/57/40 38/55/38 7/7/7 
f 65/84/65 41/58/41 66/85/66 
f 39/56/39 41/58/41 65/84/65 
f 39/56/39 65/84/65 40/57/40 
f 41/58/41 48/65/48 67/86/67 
f 48/65/48 41/58/41 42/59/42 
f 48/65/48 42/59/42 43/60/43 
f 44/61/44 46/63/46 68/87/68 
f 44/61/44 69/88/69 45/62/45 
f 69/89/69 43/60/43 45/66/45 
f 69/89/69 47/64/47 43/60/43 
f 49/67/49 70/90/70 71/91/71 
f 50/68/50 49/67/49 71/91/71 
f 38/55/38 70/90/70 49/67/49 
f 72/92/72 68/87/68 73/93/73 
f 74/94/74 68/87/68 72/92/72 
f 73/93/73 68/87/68 56/74/56 
f 68/87/68 46/63/46 52/70/52 
f 56/74/56 68/87/68 52/70/52 
f 53/71/53 56/74/56 52/70/52 
f 75/95/75 54/72/54 51/69/51 
f 75/95/75 51/69/51 50/68/50 
f 56/74/56 76/96/76 73/93/73 
f 56/74/56 77/97/77 76/96/76 
f 78/98/78 79/99/79 58/76/58 
f 54/72/54 80/100/80 58/77/58 
f 75/95/75 80/100/80 54/72/54 
f 58/76/58 79/99/79 57/75/57 
f 79/99/79 60/79/60 57/75/57 
f 57/75/57 60/79/60 59/78/59 
f 81/101/81 63/82/63 61/80/61 
f 64/83/64 81/101/81 82/102/82 
f 77/97/77 64/83/64 82/102/82 
f 56/74/56 55/73/55 77/97/77 
f 64/83/64 63/82/63 81/101/81 
f 77/97/77 55/73/55 30/39/30 
f 77/97/77 30/39/30 64/83/64 
f 65/84/65 83/103/83 40/57/40 
f 40/57/40 70/90/70 38/55/38 
f 40/57/40 83/103/83 70/90/70 
f 65/84/65 66/85/66 83/103/83 
f 41/58/41 67/86/67 66/85/66 
f 67/86/67 84/104/84 66/85/66 
f 67/86/67 48/65/48 47/64/47 
f 47/64/47 85/105/85 67/86/67 
f 86/106/86 47/64/47 69/89/69 
f 86/107/86 69/88/69 44/61/44 
f 47/64/47 86/106/86 85/105/85 
f 86/106/86 87/108/87 85/105/85 
f 88/109/88 50/68/50 71/91/71 
f 71/91/71 89/110/89 88/109/88 
f 74/94/74 72/92/72 90/111/90 
f 74/94/74 86/107/86 68/87/68 
f 68/87/68 86/107/86 44/61/44 
f 91/112/91 90/111/90 72/92/72 
f 87/113/87 86/107/86 74/94/74 
f 88/109/88 80/100/80 75/95/75 
f 88/109/88 75/95/75 50/68/50 
f 92/114/92 80/100/80 88/109/88 
f 73/93/73 91/112/91 72/92/72 
f 73/93/73 76/96/76 82/102/82 
f 73/93/73 93/115/93 91/112/91 
f 91/112/91 93/115/93 94/116/94 
f 92/114/92 95/117/95 80/100/80 
f 78/98/78 58/76/58 95/118/95 
f 95/117/95 58/77/58 80/100/80 
f 96/119/96 60/79/60 79/99/79 
f 96/119/96 97/120/97 60/79/60 
f 97/120/97 81/101/81 61/80/61 
f 60/79/60 97/120/97 61/80/61 
f 77/97/77 82/102/82 76/96/76 
f 81/101/81 98/121/98 82/102/82 
f 73/93/73 82/102/82 93/115/93 
f 82/102/82 98/121/98 93/115/93 
f 83/103/83 99/122/99 70/90/70 
f 83/103/83 100/123/100 101/124/101 
f 101/124/101 99/122/99 83/103/83 
f 83/103/83 66/85/66 100/123/100 
f 84/104/84 67/86/67 102/125/102 
f 66/85/66 84/104/84 100/123/100 
f 85/105/85 102/125/102 67/86/67 
f 103/126/103 102/125/102 85/105/85 
f 88/109/88 89/110/89 104/127/104 
f 89/110/89 71/91/71 70/90/70 
f 89/110/89 70/90/70 105/128/105 
f 104/127/104 105/128/105 99/122/99 
f 87/113/87 74/94/74 90/111/90 
f 85/105/85 87/108/87 103/126/103 
f 106/129/106 103/126/103 87/108/87 
f 104/127/104 92/114/92 88/109/88 
f 107/130/107 92/114/92 104/127/104 
f 108/131/108 95/117/95 92/114/92 
f 107/130/107 108/131/108 92/114/92 
f 91/112/91 94/116/94 109/132/109 
f 109/132/109 90/111/90 91/112/91 
f 110/133/110 78/98/78 95/118/95 
f 110/133/110 111/134/111 78/98/78 
f 78/98/78 96/119/96 79/99/79 
f 112/135/112 113/136/113 96/119/96 
f 111/134/111 96/119/96 78/98/78 
f 97/120/97 113/136/113 81/101/81 
f 98/121/98 81/101/81 113/136/113 
f 97/120/97 96/119/96 113/136/113 
f 114/137/114 94/116/94 93/115/93 
f 98/121/98 114/137/114 93/115/93 
f 99/138/99 101/139/101 115/140/115 
f 84/104/84 102/125/102 116/141/116 
f 116/141/116 102/125/102 103/126/103 
f 115/140/115 107/142/107 104/143/104 
f 99/138/99 115/140/115 104/143/104 
f 117/144/117 118/145/118 101/139/101 
f 118/145/118 115/140/115 101/139/101 
f 84/104/84 116/141/116 100/123/100 
f 119/146/119 117/144/117 120/147/120 
f 117/144/117 101/139/101 121/148/121 
f 121/149/121 100/123/100 122/150/122 
f 122/151/122 120/147/120 121/148/121 
f 116/141/116 103/126/103 123/152/123 
f 123/152/123 103/126/103 124/153/124 
f 122/150/122 116/141/116 123/152/123 
f 125/154/125 87/113/87 90/111/90 
f 106/129/106 124/153/124 103/126/103 
f 107/142/107 115/140/115 126/155/126 
f 108/156/108 107/142/107 126/155/126 
f 117/144/117 119/146/119 127/157/127 
f 128/158/128 127/157/127 119/146/119 
f 120/147/120 129/159/129 119/146/119 
f 130/160/130 124/161/124 131/162/131 
f 129/159/129 120/147/120 123/163/123 
f 131/162/131 124/161/124 106/164/106 
f 129/159/129 123/163/123 130/160/130 
f 132/165/132 90/111/90 109/132/109 
f 125/154/125 90/111/90 132/165/132 
f 114/137/114 132/165/132 109/132/109 
f 125/154/125 132/165/132 131/162/131 
f 132/165/132 114/137/114 133/166/133 
f 108/131/108 110/167/110 95/117/95 
f 128/158/128 111/168/111 110/169/110 
f 108/156/108 128/158/128 110/169/110 
f 126/155/126 118/145/118 127/157/127 
f 126/155/126 128/158/128 108/156/108 
f 112/135/112 134/170/134 113/136/113 
f 129/159/129 112/171/112 119/146/119 
f 128/158/128 119/146/119 112/171/112 
f 96/119/96 111/134/111 112/135/112 
f 113/136/113 135/172/135 98/121/98 
f 113/136/113 134/170/134 136/173/136 
f 114/137/114 135/172/135 136/173/136 
f 136/173/136 133/174/133 114/137/114 
f 137/175/137 134/176/134 129/159/129 
f 133/174/133 136/173/136 137/177/137 
f 109/132/109 94/116/94 114/137/114 
f 126/155/126 115/140/115 118/145/118 
f 135/172/135 114/137/114 98/121/98 
f 135/172/135 113/136/113 136/173/136 
f 137/177/137 136/173/136 134/170/134 
f 137/175/137 129/159/129 133/166/133 
f 87/113/87 125/154/125 106/164/106 
f 130/160/130 123/163/123 124/161/124 
f 138/178/138 132/165/132 133/166/133 
f 138/178/138 133/166/133 130/160/130 
f 130/160/130 133/166/133 129/159/129 
f 138/178/138 131/162/131 132/165/132 
f 130/160/130 131/162/131 138/178/138 
f 131/162/131 106/164/106 125/154/125 
f 112/171/112 111/168/111 128/158/128 
f 112/171/112 129/159/129 134/176/134 
f 127/157/127 118/145/118 117/144/117 
f 127/157/127 128/158/128 126/155/126 
f 105/128/105 104/127/104 89/110/89 
f 105/128/105 70/90/70 99/122/99 
f 121/148/121 120/147/120 117/144/117 
f 121/149/121 101/124/101 100/123/100 
f 122/151/122 123/163/123 120/147/120 
f 122/150/122 100/123/100 116/141/116 
# 272 faces

