# 3ds Max Wavefront OBJ Exporter v0.97b - (c)2007 guruware
# File Created: 22.02.2020 01:31:57

mtllib Rock_1.mtl

#
# object Rock_1
#

v  -26.9881 -9.1982 -3.2243
v  -28.1799 -8.2247 -10.5361
v  -20.0977 -10.5746 -7.0520
v  -23.9032 -7.3942 -15.1570
v  -27.1710 0.2680 -15.8576
v  -22.5980 -2.1991 -16.9865
v  -29.4378 -5.7416 -10.2400
v  -29.6813 1.1376 -12.9602
v  -21.1108 6.1157 -16.1026
v  -26.2249 5.2792 -15.3029
v  -30.4700 11.7284 -8.2691
v  -31.7150 5.4948 -3.9925
v  -31.3683 -0.6081 -2.7865
v  -22.7824 11.1175 -13.3465
v  -20.0232 -9.8644 -2.9445
v  -27.0517 -8.5819 2.9531
v  -29.6572 -8.1263 -5.6816
v  -29.6068 -6.6779 -2.0288
v  -30.0283 0.8562 0.7649
v  -30.6748 11.8391 -1.9447
v  -19.6826 11.4398 -3.8344
v  -28.4944 11.9575 3.3358
v  -30.3281 10.9832 3.0920
v  -18.9213 -8.5294 11.8938
v  -27.2928 -8.0620 10.2114
v  -29.2783 -5.6750 11.3309
v  -29.6226 2.6177 12.3922
v  -30.0273 7.8493 10.7409
v  -29.9630 12.1009 9.3581
v  -18.3456 11.7382 4.9994
v  -16.4224 -2.6154 13.5070
v  -21.9097 -7.1176 12.5339
v  -23.1640 12.0155 10.9518
v  -22.1322 5.8065 13.7496
v  -16.5819 6.2442 -15.0681
v  -12.9072 -8.5480 -14.0800
v  -14.1765 -5.7484 -16.0217
v  -14.2418 11.0959 -7.9720
v  -15.5066 10.5424 -11.2648
v  -15.3758 -10.0301 -0.4728
v  -10.8449 11.3767 2.3801
v  -6.4930 11.0457 -4.7912
v  -15.2381 -9.2511 6.3603
v  -16.7640 -8.1242 13.3706
v  -10.0600 -6.4632 14.0715
v  -9.3661 -8.8217 13.5486
v  -14.7399 3.5447 14.5275
v  -15.7020 9.6101 15.1823
v  -16.8986 11.8657 13.7752
v  -8.6654 11.4704 10.0692
v  -12.6848 -0.5773 -15.1742
v  -9.5776 -11.2236 -7.2105
v  -9.7236 -5.7606 -15.2548
v  -5.4999 1.5905 -13.9988
v  -3.3796 7.1386 -12.6777
v  -3.2094 9.6214 -10.7611
v  -5.3714 -10.5659 1.8556
v  -9.2639 -9.8212 5.3376
v  -2.6813 1.7996 15.9002
v  -11.4809 7.8346 15.5621
v  -5.9742 11.4587 13.7768
v  1.3908 -9.4451 -12.2810
v  0.1782 -11.8376 -5.8344
v  2.1696 0.3213 -13.9441
v  3.4585 -5.9324 -14.6217
v  0.6307 9.1368 -12.5921
v  -2.9453 9.7398 -3.1341
v  4.1829 8.8317 -9.5544
v  3.8404 -11.1984 4.7255
v  -0.9066 11.2846 9.6041
v  1.8303 10.1355 8.6593
v  -2.1129 10.8016 2.1030
v  -2.5792 -9.2959 14.6312
v  -0.3205 -4.5029 15.1518
v  3.2398 9.8511 15.8392
v  8.7021 -9.3830 -12.5648
v  5.3277 -12.4031 -5.5776
v  11.9048 -3.5821 -12.8777
v  12.2731 -7.6249 -13.2988
v  6.3263 6.8446 -12.1468
v  13.1137 5.5647 -10.3238
v  5.6669 7.1751 -5.3920
v  5.8441 9.3367 -0.8471
v  7.1343 7.2038 0.5727
v  11.4996 6.1342 -0.5264
v  7.7126 -12.5084 2.7080
v  3.2095 -11.7598 8.7472
v  8.0413 -11.8039 -2.9457
v  19.9098 -12.2108 10.5619
v  7.9718 9.4040 7.0316
v  8.9910 7.4204 6.7557
v  5.7960 -9.4313 15.2394
v  4.7329 -1.1408 16.2581
v  8.9918 9.7926 14.8649
v  11.8095 7.2835 16.7204
v  12.6932 -12.3193 -4.9249
v  20.7078 -9.7502 -10.7615
v  13.1360 4.2262 -11.2615
v  20.2867 -3.2883 -10.9108
v  18.5382 4.5673 -9.4316
v  28.8804 2.8813 -7.3499
v  30.5404 2.9519 -3.4338
v  30.3395 1.3888 -6.4703
v  23.6969 3.3008 -8.4339
v  16.7610 6.2852 9.9448
v  31.4241 0.0239 -3.7834
v  31.8103 -3.5680 -5.9484
v  16.4927 -10.4266 14.5940
v  15.0443 -5.6116 16.7861
v  11.2510 8.4167 15.2083
v  17.5707 6.9974 15.5519
v  15.0138 2.2960 16.6615
v  17.7561 -12.4305 -2.8351
v  28.1570 -9.2897 -9.8865
v  20.5996 -6.6357 -11.2774
v  30.0690 -0.5898 -8.2521
v  19.4702 4.1417 -3.4270
v  24.8800 -12.2400 1.4955
v  19.2920 4.7068 7.9873
v  22.7477 3.7778 3.5555
v  30.1001 -9.6991 10.9233
v  19.5011 5.6443 16.4723
v  24.8561 -6.4577 16.2626
v  24.9056 2.7358 16.1149
v  27.7268 4.3857 15.3951
v  30.8729 -9.1004 2.9016
v  31.1782 -8.0862 -6.0140
v  31.1679 -3.0072 -0.4084
v  30.3317 -0.5084 4.0700
v  29.8125 -8.0056 13.3581
v  29.1417 3.1435 5.0354
v  28.9629 -2.5772 15.3952
# 132 vertices

vn -0.2743 -0.9608 0.0402
vn -0.3819 -0.8677 -0.3183
vn -0.1038 -0.9818 -0.1591
vn -0.2556 -0.7224 -0.6425
vn -0.5248 -0.0866 -0.8468
vn -0.0420 -0.0652 -0.9970
vn -0.9012 -0.2301 -0.3672
vn -0.9091 -0.0032 -0.4166
vn 0.0394 0.2705 -0.9619
vn -0.5039 0.3244 -0.8005
vn -0.5635 0.7713 -0.2959
vn -0.9994 -0.0062 -0.0344
vn -0.9924 -0.1204 0.0267
vn -0.0866 0.8616 -0.5001
vn -0.1015 -0.9861 0.1317
vn -0.3305 -0.9398 0.0866
vn -0.8604 -0.5069 -0.0531
vn -0.9415 -0.3225 0.0977
vn -0.9916 -0.0644 0.1120
vn -0.4648 0.8854 -0.0010
vn 0.0312 0.9987 -0.0392
vn -0.0255 0.9993 -0.0276
vn -0.9895 0.1190 0.0824
vn -0.0753 -0.9843 0.1594
vn -0.2949 -0.9275 0.2299
vn -0.7516 -0.2091 0.6255
vn -0.7226 -0.0548 0.6891
vn -0.8660 0.1266 0.4837
vn -0.4409 0.8346 0.3302
vn 0.0308 0.9991 -0.0298
vn -0.1395 -0.1011 0.9851
vn -0.1819 -0.2080 0.9611
vn -0.1511 0.8617 0.4843
vn -0.2280 0.1125 0.9671
vn 0.1518 0.3032 -0.9408
vn -0.0165 -0.8659 -0.4999
vn 0.0981 -0.2075 -0.9733
vn 0.0522 0.9930 -0.1059
vn 0.1540 0.9217 -0.3561
vn -0.0788 -0.9901 0.1165
vn 0.0456 0.9986 -0.0257
vn 0.1100 0.9905 -0.0830
vn -0.0800 -0.9908 0.1093
vn -0.1242 -0.6617 0.7394
vn -0.1134 -0.1204 0.9862
vn -0.1073 -0.9286 0.3553
vn -0.1351 -0.1207 0.9834
vn -0.1305 0.2056 0.9699
vn -0.0890 0.9242 0.3715
vn 0.0320 0.9993 -0.0205
vn 0.1481 0.1011 -0.9838
vn -0.0503 -0.9885 -0.1428
vn 0.0907 -0.1741 -0.9805
vn 0.0949 0.1561 -0.9832
vn 0.0633 0.3297 -0.9419
vn 0.0928 0.9388 -0.3318
vn -0.0883 -0.9907 0.1039
vn -0.0870 -0.9889 0.1200
vn -0.0730 -0.0470 0.9962
vn -0.0623 0.0704 0.9956
vn -0.0024 0.8634 0.5044
vn -0.0024 -0.8150 -0.5795
vn -0.0717 -0.9937 -0.0859
vn 0.0998 0.1512 -0.9834
vn 0.0754 -0.1201 -0.9899
vn 0.0836 0.5259 -0.8464
vn 0.1823 0.9764 -0.1156
vn 0.2707 0.9586 -0.0888
vn -0.1578 -0.9858 0.0570
vn 0.1525 0.9883 -0.0003
vn 0.1969 0.9801 -0.0239
vn 0.1186 0.9901 -0.0752
vn -0.1154 -0.8392 0.5315
vn -0.0951 -0.1226 0.9879
vn -0.0096 0.4800 0.8772
vn 0.0274 -0.8342 -0.5508
vn -0.0243 -0.9855 -0.1678
vn 0.1991 0.1464 -0.9690
vn 0.1996 -0.1620 -0.9664
vn 0.2657 0.5447 -0.7955
vn 0.2139 0.9657 -0.1475
vn 0.4336 0.8981 -0.0736
vn 0.2913 0.9504 -0.1092
vn 0.5198 0.8401 -0.1549
vn 0.2163 0.9747 -0.0557
vn -0.0655 -0.9976 0.0209
vn -0.1418 -0.9728 0.1833
vn -0.0496 -0.9976 0.0475
vn 0.0820 -0.9751 0.2059
vn 0.3284 0.9413 -0.0783
vn 0.3512 0.9237 -0.1533
vn -0.0822 -0.6850 0.7239
vn -0.0748 -0.0622 0.9953
vn 0.2077 0.9682 0.1392
vn -0.0107 0.1243 0.9922
vn 0.0220 -0.9675 -0.2520
vn 0.1057 -0.8248 -0.5555
vn 0.2204 0.2211 -0.9500
vn 0.2292 0.1718 -0.9581
vn 0.3056 0.7809 -0.5448
vn 0.2240 0.7938 -0.5655
vn 0.4087 0.9127 -0.0007
vn 0.8641 0.3587 -0.3530
vn 0.2346 0.6873 -0.6875
vn 0.2841 0.9442 -0.1668
vn 0.9801 0.1952 0.0349
vn 0.9622 -0.0338 -0.2703
vn 0.0255 -0.7141 0.6996
vn -0.0053 -0.1487 0.9889
vn 0.2989 0.9509 -0.0809
vn 0.3566 0.9324 0.0587
vn 0.0083 0.0036 1.0000
vn 0.0611 -0.9928 -0.1035
vn 0.3725 -0.6304 -0.6811
vn 0.1763 -0.0137 -0.9842
vn 0.3935 0.1784 -0.9018
vn 0.1920 0.9813 -0.0133
vn 0.2190 -0.9748 -0.0413
vn 0.2527 0.9612 -0.1106
vn 0.1484 0.9877 -0.0492
vn 0.4308 -0.8639 0.2609
vn 0.2204 0.8565 0.4668
vn 0.1538 -0.2933 0.9436
vn 0.1055 0.0386 0.9937
vn 0.5664 0.8134 0.1326
vn 0.8477 -0.5300 0.0221
vn 0.7715 -0.6140 -0.1665
vn 0.9912 0.0654 0.1147
vn 0.9756 0.1695 0.1393
vn 0.8107 -0.3298 0.4838
vn 0.5772 0.8159 0.0324
vn 0.8584 0.0832 0.5062
# 132 vertex normals

vt 0.0410 0.8215 0.0000
vt 0.0221 0.7447 0.0000
vt 0.1111 0.7766 0.0000
vt 0.0612 0.6890 0.0000
vt 0.0216 0.6076 0.0000
vt 0.0716 0.6307 0.0000
vt 0.7352 0.7722 0.0000
vt 0.7424 0.8003 0.0000
vt 0.6681 0.7740 0.0000
vt 0.7162 0.8720 0.0000
vt 0.6768 0.8620 0.0000
vt 0.0828 0.5437 0.0000
vt 0.0290 0.5530 0.0000
vt 0.6757 0.9170 0.0000
vt 0.7649 0.9826 0.0000
vt 0.8111 0.9168 0.0000
vt 0.8224 0.8529 0.0000
vt 0.6681 0.9900 0.0000
vt 0.1147 0.8201 0.0000
vt 0.0459 0.8878 0.0000
vt 0.0100 0.7967 0.0000
vt 0.8189 0.7483 0.0000
vt 0.8293 0.7870 0.0000
vt 0.7894 0.7739 0.0000
vt 0.8619 0.8661 0.0000
vt 0.3036 0.3782 0.0000
vt 0.4178 0.4067 0.0000
vt 0.3044 0.4467 0.0000
vt 0.3269 0.3228 0.0000
vt 0.8866 0.9726 0.0000
vt 0.8329 0.9834 0.0000
vt 0.1386 0.9749 0.0000
vt 0.0497 0.9640 0.0000
vt 0.8829 0.7558 0.0000
vt 0.9699 0.7956 0.0000
vt 0.9587 0.7630 0.0000
vt 0.9832 0.8827 0.0000
vt 0.9663 0.9382 0.0000
vt 0.3160 0.2561 0.0000
vt 0.4317 0.3160 0.0000
vt 0.3052 0.3235 0.0000
vt 0.9525 0.9828 0.0000
vt 0.3229 0.0463 0.0000
vt 0.4582 0.0769 0.0000
vt 0.3182 0.1390 0.0000
vt 0.4013 0.0299 0.0000
vt 0.3409 0.0160 0.0000
vt 0.3866 0.2450 0.0000
vt 0.3132 0.2036 0.0000
vt 0.3964 0.1703 0.0000
vt 0.1307 0.5369 0.0000
vt 0.1780 0.6937 0.0000
vt 0.1613 0.6604 0.0000
vt 0.0634 0.4853 0.0000
vt 0.4752 0.4538 0.0000
vt 0.4630 0.4890 0.0000
vt 0.3844 0.5053 0.0000
vt 0.1653 0.8426 0.0000
vt 0.5094 0.3491 0.0000
vt 0.5555 0.4243 0.0000
vt 0.1728 0.9142 0.0000
vt 0.4565 0.0194 0.0000
vt 0.5273 0.0367 0.0000
vt 0.5354 0.0117 0.0000
vt 0.4304 0.0100 0.0000
vt 0.4746 0.1407 0.0000
vt 0.4658 0.2030 0.0000
vt 0.4528 0.2289 0.0000
vt 0.5350 0.2698 0.0000
vt 0.1755 0.6054 0.0000
vt 0.2202 0.7668 0.0000
vt 0.2083 0.6584 0.0000
vt 0.2500 0.5778 0.0000
vt 0.2706 0.5170 0.0000
vt 0.5939 0.4881 0.0000
vt 0.5925 0.5207 0.0000
vt 0.2720 0.8579 0.0000
vt 0.2346 0.8985 0.0000
vt 0.2411 0.9844 0.0000
vt 0.1627 0.9893 0.0000
vt 0.6018 0.1251 0.0000
vt 0.5090 0.1858 0.0000
vt 0.5639 0.2316 0.0000
vt 0.3277 0.6984 0.0000
vt 0.3226 0.7716 0.0000
vt 0.3308 0.5877 0.0000
vt 0.3452 0.6525 0.0000
vt 0.6369 0.5053 0.0000
vt 0.5959 0.4094 0.0000
vt 0.6737 0.4737 0.0000
vt 0.3711 0.8783 0.0000
vt 0.6142 0.2760 0.0000
vt 0.6441 0.2856 0.0000
vt 0.6018 0.3537 0.0000
vt 0.3146 0.9897 0.0000
vt 0.6090 0.0106 0.0000
vt 0.6307 0.0612 0.0000
vt 0.6580 0.2106 0.0000
vt 0.4031 0.6885 0.0000
vt 0.3763 0.7698 0.0000
vt 0.4348 0.6259 0.0000
vt 0.4391 0.6676 0.0000
vt 0.3135 0.4953 0.0000
vt 0.3755 0.5175 0.0000
vt 0.7833 0.4812 0.0000
vt 0.7049 0.5016 0.0000
vt 0.7017 0.4327 0.0000
vt 0.6876 0.3830 0.0000
vt 0.7158 0.3716 0.0000
vt 0.7638 0.3795 0.0000
vt 0.4116 0.8529 0.0000
vt 0.3720 0.9211 0.0000
vt 0.4076 0.7940 0.0000
vt 0.5476 0.9165 0.0000
vt 0.7078 0.3015 0.0000
vt 0.7305 0.3064 0.0000
vt 0.7009 0.0157 0.0000
vt 0.4057 0.9900 0.0000
vt 0.6821 0.1009 0.0000
vt 0.7146 0.2211 0.0000
vt 0.7478 0.1949 0.0000
vt 0.4537 0.7675 0.0000
vt 0.5302 0.6913 0.0000
vt 0.4485 0.5436 0.0000
vt 0.5235 0.6234 0.0000
vt 0.4506 0.5267 0.0000
vt 0.5085 0.5384 0.0000
vt 0.6200 0.5565 0.0000
vt 0.6654 0.5483 0.0000
vt 0.6383 0.5712 0.0000
vt 0.5642 0.5521 0.0000
vt 0.8074 0.2644 0.0000
vt 0.6705 0.5800 0.0000
vt 0.6574 0.6222 0.0000
vt 0.5180 0.9662 0.0000
vt 0.8179 0.0160 0.0000
vt 0.7948 0.0682 0.0000
vt 0.7409 0.2143 0.0000
vt 0.8069 0.2054 0.0000
vt 0.7866 0.1500 0.0000
vt 0.5085 0.7809 0.0000
vt 0.6090 0.6888 0.0000
vt 0.5279 0.6585 0.0000
vt 0.6252 0.5955 0.0000
vt 0.8443 0.4658 0.0000
vt 0.8517 0.4014 0.0000
vt 0.9541 0.4315 0.0000
vt 0.9004 0.4495 0.0000
vt 0.5867 0.8158 0.0000
vt 0.8397 0.2824 0.0000
vt 0.8806 0.3244 0.0000
vt 0.6562 0.9089 0.0000
vt 0.8291 0.1926 0.0000
vt 0.8979 0.0745 0.0000
vt 0.8886 0.1700 0.0000
vt 0.9161 0.1918 0.0000
vt 0.6580 0.8219 0.0000
vt 0.6501 0.7252 0.0000
vt 0.7120 0.6025 0.0000
vt 0.7510 0.5656 0.0000
vt 0.7589 0.6587 0.0000
vt 0.6615 0.6696 0.0000
vt 0.9681 0.3885 0.0000
vt 0.8636 0.6199 0.0000
vt 0.9451 0.3001 0.0000
vt 0.7519 0.5244 0.0000
vt 0.6588 0.9402 0.0000
vt 0.8427 0.6434 0.0000
vt 0.9571 0.0591 0.0000
vt 0.9379 0.1192 0.0000
vt 0.8715 0.5577 0.0000
vt 0.8543 0.4853 0.0000
# 172 texture coords

o Rock_1
g Rock_1
usemtl Rock_1
s 1
f 1/1/1 2/2/2 3/3/3 
f 2/2/2 4/4/4 3/3/3 
f 4/4/4 5/5/5 6/6/6 
f 2/7/2 7/8/7 4/9/4 
f 7/8/7 8/10/8 5/11/5 
f 7/8/7 5/11/5 4/9/4 
f 9/12/9 5/5/5 10/13/10 
f 10/14/10 5/11/5 8/10/8 
f 11/15/11 10/14/10 8/10/8 
f 12/16/12 8/10/8 13/17/13 
f 10/14/10 11/15/11 14/18/14 
f 15/19/15 16/20/16 1/1/1 
f 2/2/2 1/1/1 17/21/17 
f 1/22/1 18/23/18 17/24/17 
f 13/17/13 18/23/18 19/25/19 
f 18/23/18 13/17/13 17/24/17 
f 13/17/13 7/8/7 17/24/17 
f 12/16/12 13/17/13 19/25/19 
f 11/15/11 8/10/8 12/16/12 
f 20/26/20 21/27/21 11/28/11 
f 22/29/22 21/27/21 20/26/20 
f 23/30/23 20/31/20 12/16/12 
f 20/31/20 11/15/11 12/16/12 
f 24/32/24 25/33/25 16/20/16 
f 16/34/16 18/23/18 1/22/1 
f 26/35/26 16/34/16 25/36/25 
f 18/23/18 16/34/16 26/35/26 
f 18/23/18 26/35/26 19/25/19 
f 26/35/26 27/37/27 19/25/19 
f 23/30/23 19/25/19 28/38/28 
f 19/25/19 27/37/27 28/38/28 
f 19/25/19 23/30/23 12/16/12 
f 29/39/29 30/40/30 22/29/22 
f 23/41/23 29/39/29 22/29/22 
f 20/26/20 23/41/23 22/29/22 
f 29/42/29 23/30/23 28/38/28 
f 26/43/26 31/44/31 27/45/27 
f 32/46/32 31/44/31 26/43/26 
f 25/47/25 32/46/32 26/43/26 
f 33/48/33 28/49/28 34/50/34 
f 27/45/27 34/50/34 28/49/28 
f 29/39/29 33/48/33 30/40/30 
f 28/49/28 33/48/33 29/39/29 
f 9/12/9 35/51/35 6/6/6 
f 6/6/6 5/5/5 9/12/9 
f 3/3/3 4/4/4 36/52/36 
f 4/4/4 6/6/6 37/53/37 
f 37/53/37 36/52/36 4/4/4 
f 9/12/9 10/13/10 14/54/14 
f 38/55/38 39/56/39 14/57/14 
f 35/51/35 9/12/9 14/54/14 
f 21/27/21 38/55/38 14/57/14 
f 21/27/21 14/57/14 11/28/11 
f 1/1/1 3/3/3 15/19/15 
f 16/20/16 15/19/15 40/58/40 
f 41/59/41 42/60/42 30/40/30 
f 30/40/30 42/60/42 21/27/21 
f 30/40/30 21/27/21 22/29/22 
f 43/61/43 16/20/16 40/58/40 
f 16/20/16 43/61/43 24/32/24 
f 44/62/44 45/63/45 31/44/31 
f 44/62/44 46/64/46 45/63/45 
f 32/46/32 25/47/25 24/65/24 
f 47/66/47 48/67/48 34/50/34 
f 27/45/27 31/44/31 47/66/47 
f 34/50/34 27/45/27 47/66/47 
f 49/68/49 50/69/50 30/40/30 
f 34/50/34 48/67/48 49/68/49 
f 33/48/33 34/50/34 49/68/49 
f 6/6/6 51/70/51 37/53/37 
f 3/3/3 36/52/36 52/71/52 
f 53/72/53 36/52/36 37/53/37 
f 51/70/51 54/73/54 53/72/53 
f 51/70/51 6/6/6 35/51/35 
f 55/74/55 54/73/54 35/51/35 
f 42/60/42 56/75/56 38/55/38 
f 38/55/38 56/75/56 39/56/39 
f 14/57/14 39/56/39 55/76/55 
f 14/54/14 55/74/55 35/51/35 
f 40/58/40 52/71/52 57/77/57 
f 52/71/52 40/58/40 3/3/3 
f 15/19/15 3/3/3 40/58/40 
f 42/60/42 38/55/38 21/27/21 
f 40/58/40 57/77/57 58/78/58 
f 58/78/58 43/61/43 40/58/40 
f 50/69/50 41/59/41 30/40/30 
f 58/78/58 46/79/46 43/61/43 
f 46/79/46 44/80/44 43/61/43 
f 59/81/59 47/66/47 45/63/45 
f 45/63/45 47/66/47 31/44/31 
f 44/62/44 31/44/31 32/46/32 
f 48/67/48 47/66/47 60/82/60 
f 60/82/60 61/83/61 48/67/48 
f 49/68/49 48/67/48 61/83/61 
f 49/68/49 61/83/61 50/69/50 
f 30/40/30 33/48/33 49/68/49 
f 52/71/52 62/84/62 63/85/63 
f 36/52/36 62/84/62 52/71/52 
f 54/73/54 64/86/64 53/72/53 
f 53/72/53 65/87/65 62/84/62 
f 53/72/53 62/84/62 36/52/36 
f 55/74/55 64/86/64 54/73/54 
f 55/76/55 56/75/56 66/88/66 
f 39/56/39 56/75/56 55/76/55 
f 56/75/56 42/60/42 67/89/67 
f 52/71/52 63/85/63 57/77/57 
f 67/89/67 68/90/68 56/75/56 
f 63/85/63 69/91/69 57/77/57 
f 58/78/58 57/77/57 69/91/69 
f 70/92/70 71/93/71 72/94/72 
f 42/60/42 72/94/72 67/89/67 
f 41/59/41 70/92/70 72/94/72 
f 41/59/41 72/94/72 42/60/42 
f 50/69/50 70/92/70 41/59/41 
f 73/95/73 58/78/58 69/91/69 
f 58/78/58 73/95/73 46/79/46 
f 45/63/45 46/64/46 73/96/73 
f 73/96/73 74/97/74 45/63/45 
f 59/81/59 45/63/45 74/97/74 
f 60/82/60 59/81/59 75/98/75 
f 60/82/60 47/66/47 59/81/59 
f 75/98/75 61/83/61 60/82/60 
f 50/69/50 61/83/61 70/92/70 
f 65/87/65 76/99/76 62/84/62 
f 76/99/76 77/100/77 62/84/62 
f 53/72/53 64/86/64 65/87/65 
f 78/101/78 65/87/65 64/86/64 
f 79/102/79 76/99/76 65/87/65 
f 78/101/78 79/102/79 65/87/65 
f 55/74/55 66/103/66 64/86/64 
f 66/103/66 80/104/80 64/86/64 
f 81/105/81 80/106/80 82/107/82 
f 66/88/66 56/75/56 68/90/68 
f 80/106/80 68/90/68 82/107/82 
f 66/88/66 68/90/68 80/106/80 
f 77/100/77 63/85/63 62/84/62 
f 83/108/83 68/90/68 67/89/67 
f 82/107/82 68/90/68 83/108/83 
f 84/109/84 82/107/82 83/108/83 
f 85/110/85 82/107/82 84/109/84 
f 77/100/77 69/91/69 63/85/63 
f 86/111/86 87/112/87 69/91/69 
f 88/113/88 69/91/69 77/100/77 
f 86/111/86 69/91/69 88/113/88 
f 87/112/87 86/111/86 89/114/89 
f 72/94/72 71/93/71 83/108/83 
f 67/89/67 72/94/72 83/108/83 
f 83/108/83 71/93/71 90/115/90 
f 90/115/90 84/109/84 83/108/83 
f 84/109/84 90/115/90 91/116/91 
f 87/112/87 73/95/73 69/91/69 
f 92/117/92 74/97/74 73/96/73 
f 92/118/92 73/95/73 87/112/87 
f 89/114/89 92/118/92 87/112/87 
f 74/97/74 93/119/93 59/81/59 
f 92/117/92 93/119/93 74/97/74 
f 71/93/71 70/92/70 75/98/75 
f 75/98/75 70/92/70 61/83/61 
f 71/93/71 75/98/75 90/115/90 
f 90/115/90 75/98/75 94/120/94 
f 75/98/75 95/121/95 94/120/94 
f 93/119/93 95/121/95 59/81/59 
f 75/98/75 59/81/59 95/121/95 
f 96/122/96 77/100/77 76/99/76 
f 96/122/96 76/99/76 97/123/97 
f 76/99/76 79/102/79 97/123/97 
f 78/101/78 98/124/98 99/125/99 
f 97/123/97 79/102/79 78/101/78 
f 80/104/80 98/124/98 64/86/64 
f 98/124/98 78/101/78 64/86/64 
f 81/126/81 100/127/100 98/124/98 
f 98/124/98 80/104/80 81/126/81 
f 96/122/96 88/113/88 77/100/77 
f 88/113/88 96/122/96 86/111/86 
f 82/107/82 85/110/85 81/105/81 
f 101/128/101 102/129/102 103/130/103 
f 104/131/104 101/128/101 99/125/99 
f 85/110/85 91/116/91 105/132/105 
f 106/133/106 107/134/107 103/130/103 
f 84/109/84 91/116/91 85/110/85 
f 108/135/108 92/118/92 89/114/89 
f 108/136/108 109/137/109 92/117/92 
f 105/132/105 110/138/110 111/139/111 
f 95/121/95 111/139/111 110/138/110 
f 94/120/94 91/116/91 90/115/90 
f 91/116/91 94/120/94 110/138/110 
f 94/120/94 95/121/95 110/138/110 
f 91/116/91 110/138/110 105/132/105 
f 92/117/92 109/137/109 93/119/93 
f 109/137/109 112/140/112 93/119/93 
f 93/119/93 112/140/112 95/121/95 
f 113/141/113 97/123/97 114/142/114 
f 115/143/115 99/125/99 114/142/114 
f 78/101/78 115/143/115 97/123/97 
f 98/124/98 100/127/100 99/125/99 
f 100/127/100 104/131/104 99/125/99 
f 99/125/99 101/128/101 116/144/116 
f 86/111/86 96/122/96 113/141/113 
f 96/122/96 97/123/97 113/141/113 
f 100/145/100 85/110/85 117/146/117 
f 100/145/100 81/105/81 85/110/85 
f 101/147/101 104/148/104 117/146/117 
f 89/114/89 86/111/86 113/141/113 
f 118/149/118 89/114/89 113/141/113 
f 104/148/104 100/145/100 117/146/117 
f 85/110/85 105/132/105 119/150/119 
f 117/146/117 85/110/85 120/151/120 
f 85/110/85 119/150/119 120/151/120 
f 121/152/121 108/135/108 89/114/89 
f 111/139/111 119/150/119 105/132/105 
f 111/139/111 122/153/122 119/150/119 
f 109/137/109 123/154/123 112/140/112 
f 123/154/123 109/137/109 108/136/108 
f 124/155/124 112/140/112 123/154/123 
f 95/121/95 112/140/112 122/153/122 
f 122/153/122 111/139/111 95/121/95 
f 112/140/112 124/155/124 122/153/122 
f 122/153/122 124/155/124 125/156/125 
f 116/144/116 114/142/114 99/125/99 
f 118/149/118 113/141/113 114/142/114 
f 126/157/126 118/149/118 127/158/127 
f 118/149/118 114/142/114 127/158/127 
f 116/144/116 107/134/107 114/142/114 
f 128/159/128 102/129/102 129/160/129 
f 107/134/107 128/159/128 126/161/126 
f 126/161/126 127/162/127 107/134/107 
f 107/134/107 106/133/106 128/159/128 
f 103/130/103 102/129/102 106/133/106 
f 127/162/127 114/142/114 107/134/107 
f 120/151/120 102/163/102 117/146/117 
f 101/147/101 117/146/117 102/163/102 
f 103/130/103 116/144/116 101/128/101 
f 121/152/121 118/149/118 126/157/126 
f 129/160/129 130/164/130 128/159/128 
f 128/159/128 130/164/130 126/161/126 
f 120/151/120 131/165/131 102/163/102 
f 102/129/102 131/166/131 129/160/129 
f 89/114/89 118/149/118 121/152/121 
f 121/152/121 130/167/130 108/135/108 
f 130/164/130 121/168/121 126/161/126 
f 130/169/130 123/154/123 108/136/108 
f 132/170/132 125/156/125 124/155/124 
f 123/154/123 132/170/132 124/155/124 
f 132/170/132 123/154/123 130/169/130 
f 132/171/132 130/164/130 129/160/129 
f 119/150/119 122/153/122 120/151/120 
f 122/153/122 125/156/125 120/151/120 
f 125/156/125 131/165/131 120/151/120 
f 131/166/131 132/171/132 129/160/129 
f 131/166/131 125/172/125 132/171/132 
f 7/8/7 13/17/13 8/10/8 
f 7/8/7 2/7/2 17/24/17 
f 44/62/44 32/46/32 24/65/24 
f 44/80/44 24/32/24 43/61/43 
f 106/133/106 102/129/102 128/159/128 
f 103/130/103 107/134/107 116/144/116 
f 51/70/51 35/51/35 54/73/54 
f 51/70/51 53/72/53 37/53/37 
f 115/143/115 78/101/78 99/125/99 
f 115/143/115 114/142/114 97/123/97 
# 260 faces

