# 3ds Max Wavefront OBJ Exporter v0.97b - (c)2007 guruware
# File Created: 22.02.2020 01:33:22

mtllib Rock_5.mtl

#
# object Rock_5
#

v  -17.6624 4.3627 -12.8408
v  -6.1498 5.4429 -22.4349
v  -18.2112 2.1020 -18.0605
v  -19.1260 -4.0444 -12.4749
v  -13.2951 -9.9922 -10.4873
v  -16.6168 -8.4767 -8.2508
v  -13.1831 -5.9549 -17.7890
v  -9.1523 -10.1481 -11.9018
v  -20.8434 -3.7040 -7.8695
v  -17.3706 -2.0951 -20.6173
v  -19.2871 4.5570 -7.8104
v  -12.0804 7.3499 -11.8313
v  -21.9785 -7.8164 -3.8143
v  -17.5034 -10.1150 0.2413
v  -22.1802 -8.0282 3.8650
v  -21.7105 -2.2299 -3.9062
v  -19.7622 5.1894 3.3846
v  -17.5985 7.0483 -2.9237
v  -8.4082 10.2872 -10.0162
v  -21.8751 -8.6912 7.2550
v  -16.5471 -10.2187 7.7559
v  -20.5704 1.2138 7.4067
v  -12.3283 9.4988 -0.4626
v  -16.5309 -10.0393 15.5793
v  -20.5880 -8.5099 17.6386
v  -21.4421 -6.6133 14.7271
v  -14.3998 10.3444 8.2313
v  -19.2517 7.7933 12.1257
v  -19.0387 9.3531 18.1975
v  -15.1181 10.2904 14.6726
v  -16.6010 -9.9965 21.6923
v  -18.8083 -9.1282 23.0118
v  -14.4868 1.2645 26.4722
v  -20.1467 0.8512 24.0726
v  -18.3466 9.6404 23.0668
v  -5.7139 -8.5000 -23.3865
v  -9.4217 -4.4304 -27.7639
v  -6.0104 0.9842 -30.2440
v  -6.5497 3.1199 -28.9599
v  -2.9078 4.2391 -30.2127
v  -4.7765 -10.3056 -17.4734
v  -8.8786 -10.1890 -4.9222
v  -3.6569 9.2761 -13.0686
v  -6.6375 7.5426 -16.4755
v  -8.9921 6.1449 -16.7971
v  4.4707 -10.1653 -1.0979
v  -3.3311 10.9227 3.1372
v  -10.2084 10.3339 4.9408
v  -5.6866 10.6036 -3.0956
v  -8.0403 -10.1898 9.7508
v  -4.1499 10.3759 7.3008
v  -2.9744 10.3645 14.4993
v  -6.5571 10.3713 19.6664
v  -3.0999 -9.8586 18.5891
v  -7.8709 -8.9858 24.2177
v  -12.7736 -6.7434 25.5398
v  -10.5604 10.1636 24.6788
v  -6.9295 -0.0152 28.0475
v  -10.3233 7.2749 28.4828
v  -16.3319 6.8852 26.4443
v  0.2066 -9.5934 -25.6454
v  0.6773 -4.7237 -27.1100
v  1.3126 2.2423 -30.5694
v  1.9078 5.0192 -29.2430
v  2.1692 -10.5191 -23.3502
v  6.5027 7.2821 -22.1432
v  7.8676 -10.5213 -10.2931
v  2.3105 10.2295 -12.7067
v  1.7005 8.2372 -15.4062
v  2.2076 -10.0705 8.5387
v  9.6634 -9.8238 -24.0628
v  18.6713 -10.0433 -22.5554
v  9.8282 -10.5858 -16.8089
v  3.9216 -9.8818 15.2597
v  8.9326 10.3925 5.4871
v  2.3199 -8.9718 17.8359
v  -2.1558 -7.6241 25.3209
v  -2.4993 -4.2561 26.5171
v  2.8334 10.4424 19.3832
v  -1.6558 10.3420 25.3238
v  7.2384 -4.7761 26.1444
v  4.3798 1.7254 28.3536
v  -3.2237 6.0507 29.7946
v  6.8264 7.7952 27.6848
v  3.3263 10.0843 26.0540
v  13.2351 5.5194 -28.9512
v  7.9168 0.6972 -29.3259
v  6.0232 7.2519 -16.8891
v  15.7883 10.1819 -13.4301
v  14.9840 -10.2864 -6.3666
v  10.2689 10.3848 -4.0636
v  15.1593 -9.1667 11.0313
v  15.8395 -8.2303 12.9444
v  10.2085 10.2059 14.2417
v  13.6139 -7.6811 25.0502
v  14.3839 -8.4480 19.9341
v  10.6207 10.0302 23.3012
v  9.2267 -4.9740 -26.5551
v  17.5234 -0.6474 -27.4725
v  16.0127 6.7489 -26.5873
v  15.3245 6.4943 -20.9340
v  11.2432 8.4024 -18.2966
v  19.3012 9.2174 -18.0615
v  18.5065 5.5598 -20.7229
v  21.2783 -10.1408 -12.5086
v  15.7375 -9.6972 0.8061
v  19.2114 9.1860 -5.4991
v  18.8515 10.0987 -2.5105
v  19.7960 -8.8590 2.9155
v  17.4349 10.1912 9.6584
v  17.9999 -8.0367 10.4230
v  17.7140 10.1390 20.7990
v  16.7688 -5.7203 23.3399
v  15.6412 -4.6674 25.1375
v  12.7375 -0.0191 26.3299
v  18.2412 8.3642 23.5073
v  21.3950 -8.9964 -19.5961
v  20.1600 -8.0059 -23.6383
v  19.2109 -5.1206 -25.0990
v  19.0713 0.3170 -21.8067
v  21.8349 -3.0366 -22.0342
v  21.2816 1.5373 -20.5016
v  22.3265 -5.1735 -14.1492
v  21.2966 -5.7817 -23.2264
v  20.0331 7.7162 -18.1295
v  20.5722 -8.6597 -3.5482
v  22.1576 -4.1787 -8.2468
v  20.3781 5.1336 -12.9127
v  20.7338 2.1086 -6.3978
v  19.6235 9.1251 -12.4339
v  21.4372 -2.6707 -0.6770
v  19.3311 -3.2320 6.8018
v  17.4880 -6.8903 14.5213
v  20.9321 -0.8106 5.7129
v  19.2134 8.3628 13.6356
v  19.2565 3.6865 10.1901
v  17.1425 -1.2060 24.2531
# 137 vertices

vn -0.4422 0.8500 -0.2862
vn -0.2412 0.9380 -0.2490
vn -0.7322 0.5408 -0.4141
vn -0.7654 -0.5507 -0.3329
vn -0.2390 -0.9092 -0.3410
vn -0.5485 -0.7664 -0.3344
vn -0.4929 -0.8219 -0.2856
vn -0.1629 -0.9795 -0.1184
vn -0.9466 -0.0883 -0.3099
vn -0.7804 -0.2559 -0.5705
vn -0.8499 0.4976 -0.1732
vn -0.4048 0.8368 -0.3687
vn -0.7831 -0.5730 -0.2417
vn -0.1141 -0.9929 -0.0326
vn -0.9835 -0.1796 0.0226
vn -0.9801 0.1941 -0.0415
vn -0.8691 0.4916 -0.0550
vn -0.5353 0.8394 -0.0942
vn -0.2092 0.9567 -0.2025
vn -0.8564 -0.5137 0.0516
vn -0.1142 -0.9933 0.0159
vn -0.9859 0.1659 0.0217
vn -0.3453 0.9355 -0.0743
vn -0.0902 -0.9957 0.0191
vn -0.8240 -0.5366 0.1821
vn -0.9962 0.0556 0.0664
vn -0.3044 0.9471 -0.1016
vn -0.9062 0.4198 -0.0501
vn -0.9263 0.3768 0.0033
vn -0.1313 0.9912 -0.0162
vn -0.0608 -0.9892 0.1332
vn -0.6638 -0.3784 0.6451
vn -0.3020 -0.1476 0.9418
vn -0.9103 0.0409 0.4120
vn -0.5613 0.7789 0.2797
vn -0.3942 -0.8625 -0.3175
vn -0.4909 -0.4632 -0.7379
vn -0.2762 -0.1762 -0.9448
vn -0.5166 0.6819 -0.5178
vn -0.1692 0.8007 -0.5746
vn -0.1646 -0.9820 -0.0923
vn -0.0121 -0.9999 0.0047
vn -0.1261 0.8862 -0.4458
vn -0.2254 0.8653 -0.4477
vn -0.2888 0.8994 -0.3283
vn 0.0100 -0.9997 0.0242
vn -0.0114 0.9999 0.0116
vn -0.0688 0.9957 -0.0614
vn -0.0468 0.9986 -0.0247
vn 0.0026 -0.9999 0.0097
vn -0.0037 0.9994 0.0355
vn -0.0000 1.0000 -0.0003
vn -0.0137 0.9999 0.0095
vn 0.0592 -0.9917 0.1143
vn 0.0524 -0.8248 0.5631
vn -0.1597 -0.3430 0.9256
vn -0.0781 0.9562 0.2822
vn -0.0983 -0.2568 0.9615
vn -0.1942 0.3358 0.9217
vn -0.4838 0.2240 0.8460
vn -0.0407 -0.6049 -0.7953
vn 0.0503 -0.3743 -0.9259
vn 0.0879 -0.2300 -0.9692
vn -0.0543 0.8902 -0.4523
vn -0.0344 -0.9933 -0.1102
vn -0.0324 0.9846 -0.1716
vn -0.0004 -0.9998 0.0201
vn -0.0059 0.9877 -0.1560
vn -0.0363 0.9542 -0.2968
vn 0.0336 -0.9992 0.0227
vn 0.0951 -0.8341 -0.5433
vn 0.1148 -0.9429 -0.3127
vn 0.0157 -0.9997 -0.0197
vn 0.0817 -0.9889 0.1241
vn 0.0251 0.9996 0.0107
vn 0.0614 -0.9770 0.2043
vn 0.0404 -0.8523 0.5216
vn -0.0059 -0.3396 0.9405
vn 0.0196 0.9998 0.0068
vn 0.0017 0.9326 0.3609
vn 0.0647 -0.2777 0.9585
vn 0.1300 -0.1583 0.9788
vn -0.0032 0.2073 0.9783
vn 0.2437 0.3166 0.9167
vn 0.0479 0.8744 0.4829
vn 0.1208 0.5511 -0.8257
vn 0.0840 -0.2311 -0.9693
vn 0.0196 0.9369 -0.3490
vn 0.0433 0.9941 -0.0990
vn 0.0745 -0.9952 0.0630
vn 0.0337 0.9994 -0.0103
vn 0.1163 -0.9875 0.1060
vn 0.1952 -0.9715 0.1344
vn 0.0133 0.9998 0.0124
vn 0.1156 -0.8399 0.5303
vn 0.1860 -0.9792 0.0806
vn 0.0792 0.9702 0.2290
vn 0.1037 -0.4227 -0.9003
vn 0.5238 -0.1398 -0.8403
vn 0.5217 0.7575 -0.3924
vn 0.0824 0.9750 -0.2062
vn -0.2294 0.8686 -0.4392
vn 0.3093 0.8711 -0.3816
vn 0.7291 0.4766 -0.4913
vn 0.4358 -0.8993 0.0375
vn 0.0895 -0.9947 0.0501
vn 0.6982 0.7156 0.0208
vn 0.6098 0.7925 -0.0132
vn 0.7338 -0.6645 0.1412
vn 0.1925 0.9811 0.0185
vn 0.8536 -0.4671 0.2305
vn 0.2611 0.9579 0.1190
vn 0.8988 -0.3853 0.2089
vn 0.4295 -0.1585 0.8891
vn 0.2907 -0.0183 0.9566
vn 0.8699 0.1011 0.4828
vn 0.8778 -0.4612 -0.1296
vn 0.3430 -0.5049 -0.7921
vn 0.3875 -0.2436 -0.8891
vn 0.8087 0.2544 -0.5304
vn 0.9454 0.1434 -0.2927
vn 0.9601 0.2161 -0.1775
vn 0.9997 0.0252 0.0045
vn 0.8907 -0.1198 -0.4384
vn 0.9166 0.3312 -0.2240
vn 0.7298 -0.6708 0.1322
vn 0.9978 -0.0068 0.0658
vn 0.9823 0.1855 0.0245
vn 0.9792 0.1985 0.0415
vn 0.7862 0.6179 0.0117
vn 0.9966 0.0386 0.0722
vn 0.9444 -0.1424 0.2965
vn 0.9604 -0.2432 0.1356
vn 0.9831 0.0994 0.1536
vn 0.9950 0.0748 0.0662
vn 0.9947 0.0305 0.0980
vn 0.9231 -0.0766 0.3768
# 137 vertex normals

vt 0.5581 0.8268 0.0000
vt 0.6577 0.7238 0.0000
vt 0.6095 0.8431 0.0000
vt 0.3793 0.0464 0.0000
vt 0.3541 0.1228 0.0000
vt 0.3320 0.0887 0.0000
vt 0.4314 0.1044 0.0000
vt 0.3738 0.1589 0.0000
vt 0.5206 0.9197 0.0000
vt 0.5679 0.9124 0.0000
vt 0.5501 0.9730 0.0000
vt 0.6424 0.8769 0.0000
vt 0.4605 0.0510 0.0000
vt 0.5101 0.8405 0.0000
vt 0.5492 0.7666 0.0000
vt 0.2836 0.0431 0.0000
vt 0.2494 0.0942 0.0000
vt 0.2102 0.0492 0.0000
vt 0.4839 0.9639 0.0000
vt 0.4793 0.9117 0.0000
vt 0.4081 0.9730 0.0000
vt 0.4042 0.8444 0.0000
vt 0.4624 0.8153 0.0000
vt 0.5302 0.7236 0.0000
vt 0.1782 0.0582 0.0000
vt 0.1797 0.1114 0.0000
vt 0.3684 0.8864 0.0000
vt 0.3737 0.9811 0.0000
vt 0.4404 0.7592 0.0000
vt 0.1062 0.1203 0.0000
vt 0.0812 0.0816 0.0000
vt 0.3001 0.9645 0.0000
vt 0.2714 0.9828 0.0000
vt 0.3585 0.7733 0.0000
vt 0.3204 0.8253 0.0000
vt 0.2621 0.8135 0.0000
vt 0.2990 0.7788 0.0000
vt 0.0488 0.1271 0.0000
vt 0.0327 0.1070 0.0000
vt 0.1181 0.7735 0.0000
vt 0.1253 0.8324 0.0000
vt 0.0227 0.8259 0.0000
vt 0.2172 0.9900 0.0000
vt 0.2073 0.8945 0.0000
vt 0.2150 0.8076 0.0000
vt 0.4875 0.1771 0.0000
vt 0.5321 0.1272 0.0000
vt 0.8627 0.9732 0.0000
vt 0.8480 0.8314 0.0000
vt 0.8982 0.8720 0.0000
vt 0.8253 0.8392 0.0000
vt 0.7222 0.7385 0.0000
vt 0.7358 0.7023 0.0000
vt 0.4307 0.1948 0.0000
vt 0.3076 0.1711 0.0000
vt 0.5651 0.6836 0.0000
vt 0.5965 0.7176 0.0000
vt 0.6009 0.7437 0.0000
vt 0.2870 0.3013 0.0000
vt 0.4113 0.6686 0.0000
vt 0.3909 0.7340 0.0000
vt 0.4674 0.6947 0.0000
vt 0.1705 0.1945 0.0000
vt 0.3722 0.6749 0.0000
vt 0.3066 0.6602 0.0000
vt 0.2599 0.6946 0.0000
vt 0.0921 0.2511 0.0000
vt 0.0100 0.7149 0.0000
vt 0.0393 0.7617 0.0000
vt 0.0326 0.2124 0.0000
vt 0.2114 0.7312 0.0000
vt 0.0989 0.6996 0.0000
vt 0.1686 0.7261 0.0000
vt 0.1754 0.7835 0.0000
vt 0.9625 0.7852 0.0000
vt 0.9153 0.7756 0.0000
vt 0.8421 0.7628 0.0000
vt 0.5143 0.2321 0.0000
vt 0.8182 0.9900 0.0000
vt 0.8185 0.8007 0.0000
vt 0.7308 0.6546 0.0000
vt 0.4937 0.2540 0.0000
vt 0.6662 0.6006 0.0000
vt 0.3779 0.3228 0.0000
vt 0.5641 0.6257 0.0000
vt 0.5953 0.6363 0.0000
vt 0.1934 0.2903 0.0000
vt 0.5106 0.3237 0.0000
vt 0.5066 0.4105 0.0000
vt 0.4417 0.3340 0.0000
vt 0.1317 0.3138 0.0000
vt 0.3934 0.5488 0.0000
vt 0.1037 0.3025 0.0000
vt 0.0264 0.2689 0.0000
vt 0.0238 0.6531 0.0000
vt 0.0571 0.6570 0.0000
vt 0.2631 0.6028 0.0000
vt 0.2110 0.6466 0.0000
vt 0.0563 0.5610 0.0000
vt 0.1178 0.5908 0.0000
vt 0.1546 0.6622 0.0000
vt 0.1766 0.5680 0.0000
vt 0.2031 0.6006 0.0000
vt 0.8143 0.7529 0.0000
vt 0.8253 0.6449 0.0000
vt 0.8642 0.7026 0.0000
vt 0.6158 0.5968 0.0000
vt 0.5816 0.4989 0.0000
vt 0.3488 0.3948 0.0000
vt 0.4868 0.5425 0.0000
vt 0.1836 0.4157 0.0000
vt 0.1650 0.4262 0.0000
vt 0.3081 0.5322 0.0000
vt 0.0475 0.4178 0.0000
vt 0.0973 0.4181 0.0000
vt 0.2210 0.5296 0.0000
vt 0.0346 0.4963 0.0000
vt 0.9260 0.6951 0.0000
vt 0.8910 0.6154 0.0000
vt 0.7412 0.5461 0.0000
vt 0.7197 0.5158 0.0000
vt 0.8201 0.6069 0.0000
vt 0.9779 0.6943 0.0000
vt 0.9900 0.6073 0.0000
vt 0.6650 0.5140 0.0000
vt 0.6273 0.5464 0.0000
vt 0.6304 0.4702 0.0000
vt 0.6672 0.4825 0.0000
vt 0.4146 0.4471 0.0000
vt 0.2814 0.4102 0.0000
vt 0.5075 0.4584 0.0000
vt 0.4756 0.4596 0.0000
vt 0.2652 0.4515 0.0000
vt 0.3525 0.4659 0.0000
vt 0.1912 0.4442 0.0000
vt 0.2375 0.4620 0.0000
vt 0.0652 0.4526 0.0000
vt 0.0656 0.4795 0.0000
vt 0.1082 0.5090 0.0000
vt 0.2007 0.4581 0.0000
vt 0.8402 0.5453 0.0000
vt 0.4830 0.4423 0.0000
vt 0.9688 0.5916 0.0000
vt 0.9376 0.5981 0.0000
vt 0.5228 0.4309 0.0000
vt 0.8888 0.5612 0.0000
vt 0.7475 0.5029 0.0000
vt 0.7041 0.4859 0.0000
vt 0.7715 0.4290 0.0000
vt 0.8057 0.4828 0.0000
vt 0.9294 0.5551 0.0000
vt 0.8862 0.5349 0.0000
vt 0.7734 0.5159 0.0000
vt 0.8161 0.5655 0.0000
vt 0.8260 0.5131 0.0000
vt 0.8102 0.5126 0.0000
vt 0.3275 0.4526 0.0000
vt 0.8206 0.4158 0.0000
vt 0.7652 0.3727 0.0000
vt 0.6725 0.4115 0.0000
vt 0.7050 0.3512 0.0000
vt 0.6295 0.4579 0.0000
vt 0.6342 0.4042 0.0000
vt 0.6453 0.4599 0.0000
vt 0.5758 0.4605 0.0000
vt 0.7548 0.3002 0.0000
vt 0.8116 0.3292 0.0000
vt 0.6368 0.3375 0.0000
vt 0.6295 0.3079 0.0000
vt 0.8142 0.1930 0.0000
vt 0.8168 0.2672 0.0000
vt 0.7660 0.2261 0.0000
vt 0.8050 0.1533 0.0000
vt 0.7401 0.2393 0.0000
vt 0.6588 0.1556 0.0000
vt 0.7010 0.1914 0.0000
vt 0.6308 0.1909 0.0000
vt 0.1508 0.4473 0.0000
vt 0.6442 0.0854 0.0000
vt 0.6640 0.0612 0.0000
vt 0.7559 0.0579 0.0000
vt 0.0998 0.4628 0.0000
vt 0.0541 0.4606 0.0000
vt 0.7986 0.0686 0.0000
vt 0.9513 0.5745 0.0000
vt 0.7965 0.5230 0.0000
# 186 texture coords

o Rock_5
g Rock_5
usemtl Rock_5
s 1
f 1/1/1 2/2/2 3/3/3 
f 4/4/4 5/5/5 6/6/6 
f 4/4/4 7/7/7 8/8/8 
f 4/4/4 8/8/8 5/5/5 
f 9/9/9 4/10/4 6/11/6 
f 3/3/3 10/12/10 4/10/4 
f 9/9/9 3/3/3 4/10/4 
f 7/7/7 4/4/4 10/13/10 
f 11/14/11 3/3/3 9/9/9 
f 11/14/11 1/1/1 3/3/3 
f 12/15/12 1/1/1 11/14/11 
f 13/16/13 6/6/6 14/17/14 
f 13/16/13 14/17/14 15/18/15 
f 9/9/9 6/11/6 13/19/13 
f 16/20/16 13/19/13 15/21/15 
f 11/14/11 9/9/9 16/20/16 
f 13/19/13 16/20/16 9/9/9 
f 17/22/17 18/23/18 11/14/11 
f 16/20/16 17/22/17 11/14/11 
f 18/23/18 19/24/19 11/14/11 
f 20/25/20 14/17/14 21/26/21 
f 14/17/14 20/25/20 15/18/15 
f 16/20/16 15/21/15 17/22/17 
f 22/27/22 17/22/17 15/21/15 
f 15/21/15 20/28/20 22/27/22 
f 17/22/17 23/29/23 18/23/18 
f 21/26/21 24/30/24 25/31/25 
f 20/25/20 21/26/21 25/31/25 
f 20/28/20 26/32/26 22/27/22 
f 20/28/20 25/33/25 26/32/26 
f 27/34/27 17/22/17 28/35/28 
f 17/22/17 22/27/22 28/35/28 
f 22/27/22 26/32/26 28/35/28 
f 26/32/26 29/36/29 28/35/28 
f 29/36/29 30/37/30 28/35/28 
f 24/30/24 31/38/31 25/31/25 
f 32/39/32 25/31/25 31/38/31 
f 33/40/33 34/41/34 32/42/32 
f 25/33/25 32/43/32 34/44/34 
f 26/32/26 25/33/25 34/44/34 
f 26/32/26 34/44/34 29/36/29 
f 34/44/34 35/45/35 29/36/29 
f 29/36/29 35/45/35 30/37/30 
f 36/46/36 10/13/10 37/47/37 
f 10/48/10 38/49/38 37/50/37 
f 39/51/39 38/49/38 10/48/10 
f 39/52/39 3/3/3 2/2/2 
f 10/13/10 36/46/36 7/7/7 
f 39/52/39 2/2/2 40/53/40 
f 36/46/36 41/54/41 7/7/7 
f 7/7/7 41/54/41 8/8/8 
f 5/5/5 8/8/8 42/55/42 
f 19/24/19 43/56/43 12/15/12 
f 12/15/12 44/57/44 45/58/45 
f 1/1/1 45/58/45 2/2/2 
f 12/15/12 45/58/45 1/1/1 
f 19/24/19 12/15/12 11/14/11 
f 14/17/14 42/55/42 46/59/46 
f 5/5/5 42/55/42 14/17/14 
f 6/6/6 5/5/5 14/17/14 
f 47/60/47 23/29/23 48/61/48 
f 49/62/49 19/24/19 23/29/23 
f 18/23/18 23/29/23 19/24/19 
f 50/63/50 21/26/21 14/17/14 
f 48/61/48 27/34/27 51/64/51 
f 27/34/27 48/61/48 23/29/23 
f 17/22/17 27/34/27 23/29/23 
f 24/30/24 21/26/21 50/63/50 
f 30/37/30 52/65/52 27/34/27 
f 52/65/52 30/37/30 53/66/53 
f 28/35/28 30/37/30 27/34/27 
f 54/67/54 31/38/31 24/30/24 
f 32/42/32 55/68/55 56/69/56 
f 31/38/31 55/70/55 32/39/32 
f 32/42/32 56/69/56 33/40/33 
f 57/71/57 53/66/53 30/37/30 
f 35/45/35 57/71/57 30/37/30 
f 55/68/55 58/72/58 56/69/56 
f 58/72/58 33/40/33 56/69/56 
f 33/40/33 59/73/59 60/74/60 
f 60/74/60 35/45/35 34/41/34 
f 59/73/59 57/71/57 35/45/35 
f 61/75/61 37/50/37 62/76/62 
f 38/49/38 63/77/63 62/76/62 
f 36/46/36 37/47/37 61/78/61 
f 38/49/38 62/76/62 37/50/37 
f 39/51/39 10/48/10 3/79/3 
f 63/77/63 38/49/38 40/80/40 
f 40/53/40 2/2/2 64/81/64 
f 65/82/65 36/46/36 61/78/61 
f 65/82/65 41/54/41 36/46/36 
f 66/83/66 45/58/45 44/57/44 
f 66/83/66 2/2/2 45/58/45 
f 8/8/8 41/54/41 67/84/67 
f 68/85/68 69/86/69 43/56/43 
f 43/56/43 69/86/69 44/57/44 
f 68/85/68 43/56/43 19/24/19 
f 49/62/49 68/85/68 19/24/19 
f 12/15/12 43/56/43 44/57/44 
f 42/55/42 67/84/67 46/59/46 
f 42/55/42 8/8/8 67/84/67 
f 50/63/50 14/17/14 46/59/46 
f 47/60/47 49/62/49 23/29/23 
f 46/59/46 70/87/70 50/63/50 
f 71/88/71 72/89/72 73/90/73 
f 71/88/71 65/82/65 61/78/61 
f 51/64/51 47/60/47 48/61/48 
f 70/87/70 74/91/74 50/63/50 
f 50/63/50 74/91/74 54/67/54 
f 50/63/50 54/67/54 24/30/24 
f 52/65/52 75/92/75 51/64/51 
f 52/65/52 51/64/51 27/34/27 
f 76/93/76 77/94/77 54/67/54 
f 54/67/54 77/94/77 55/70/55 
f 54/67/54 55/70/55 31/38/31 
f 77/95/77 78/96/78 55/68/55 
f 52/65/52 53/66/53 79/97/79 
f 53/66/53 80/98/80 79/97/79 
f 57/71/57 80/98/80 53/66/53 
f 77/95/77 81/99/81 78/96/78 
f 82/100/82 58/72/58 78/96/78 
f 78/96/78 58/72/58 55/68/55 
f 58/72/58 82/100/82 83/101/83 
f 80/98/80 83/101/83 84/102/84 
f 58/72/58 83/101/83 59/73/59 
f 33/40/33 58/72/58 59/73/59 
f 80/98/80 84/102/84 85/103/85 
f 83/101/83 80/98/80 59/73/59 
f 59/73/59 80/98/80 57/71/57 
f 40/80/40 64/104/64 63/77/63 
f 64/104/64 86/105/86 87/106/87 
f 63/77/63 64/104/64 87/106/87 
f 65/82/65 73/90/73 41/54/41 
f 66/83/66 64/81/64 2/2/2 
f 66/83/66 44/57/44 69/86/69 
f 66/83/66 69/86/69 88/107/88 
f 67/84/67 41/54/41 73/90/73 
f 88/107/88 69/86/69 68/85/68 
f 89/108/89 88/107/88 68/85/68 
f 46/59/46 67/84/67 90/109/90 
f 91/110/91 49/62/49 47/60/47 
f 91/110/91 68/85/68 49/62/49 
f 47/60/47 51/64/51 75/92/75 
f 91/110/91 47/60/47 75/92/75 
f 76/93/76 54/67/54 74/91/74 
f 92/111/92 74/91/74 70/87/70 
f 74/91/74 92/111/92 93/112/93 
f 74/91/74 93/112/93 76/93/76 
f 52/65/52 79/97/79 94/113/94 
f 75/92/75 52/65/52 94/113/94 
f 77/94/77 76/93/76 95/114/95 
f 96/115/96 95/114/95 76/93/76 
f 79/97/79 80/98/80 97/116/97 
f 97/116/97 80/98/80 85/103/85 
f 79/97/79 97/116/97 94/113/94 
f 82/100/82 78/96/78 81/99/81 
f 77/95/77 95/117/95 81/99/81 
f 83/101/83 82/100/82 84/102/84 
f 85/103/85 84/102/84 97/116/97 
f 98/118/98 87/106/87 99/119/99 
f 66/83/66 86/120/86 64/81/64 
f 86/120/86 66/83/66 100/121/100 
f 86/105/86 99/119/99 87/106/87 
f 100/122/100 99/119/99 86/105/86 
f 73/90/73 65/82/65 71/88/71 
f 71/123/71 61/75/61 98/118/98 
f 72/124/72 71/123/71 98/118/98 
f 101/125/101 102/126/102 103/127/103 
f 100/121/100 66/83/66 101/125/101 
f 100/121/100 101/125/101 104/128/104 
f 101/125/101 88/107/88 102/126/102 
f 66/83/66 88/107/88 101/125/101 
f 67/84/67 73/90/73 105/129/105 
f 90/109/90 67/84/67 105/129/105 
f 102/126/102 88/107/88 89/108/89 
f 91/110/91 89/108/89 68/85/68 
f 102/126/102 89/108/89 103/127/103 
f 106/130/106 46/59/46 90/109/90 
f 107/131/107 89/108/89 91/110/91 
f 107/131/107 91/110/91 108/132/108 
f 46/59/46 106/130/106 70/87/70 
f 92/111/92 70/87/70 106/130/106 
f 109/133/109 92/111/92 106/130/106 
f 91/110/91 75/92/75 108/132/108 
f 108/132/108 75/92/75 110/134/110 
f 93/112/93 92/111/92 111/135/111 
f 93/112/93 96/115/96 76/93/76 
f 75/92/75 94/113/94 110/134/110 
f 110/134/110 94/113/94 112/136/112 
f 113/137/113 95/114/95 96/115/96 
f 114/138/114 115/139/115 95/117/95 
f 84/102/84 115/139/115 116/140/116 
f 94/113/94 97/116/97 112/136/112 
f 97/116/97 84/102/84 116/140/116 
f 112/136/112 97/116/97 116/140/116 
f 82/100/82 81/99/81 115/139/115 
f 95/117/95 115/139/115 81/99/81 
f 82/100/82 115/139/115 84/102/84 
f 104/141/104 99/119/99 100/122/100 
f 73/90/73 72/89/72 105/129/105 
f 105/129/105 72/89/72 117/142/117 
f 98/118/98 118/143/118 72/124/72 
f 98/118/98 99/119/99 119/144/119 
f 117/142/117 72/89/72 118/145/118 
f 99/119/99 120/146/120 119/144/119 
f 121/147/121 122/148/122 123/149/123 
f 117/150/117 121/147/121 123/149/123 
f 121/151/121 120/146/120 122/152/122 
f 119/144/119 120/146/120 121/151/121 
f 117/150/117 124/153/124 121/147/121 
f 104/141/104 101/154/101 125/155/125 
f 120/146/120 99/119/99 104/141/104 
f 101/154/101 103/156/103 125/155/125 
f 122/152/122 120/146/120 104/141/104 
f 126/157/126 90/109/90 105/129/105 
f 105/158/105 123/149/123 127/159/127 
f 105/158/105 117/150/117 123/149/123 
f 123/149/123 128/160/128 129/161/129 
f 103/162/103 130/163/130 128/160/128 
f 128/160/128 122/148/122 125/164/125 
f 129/161/129 127/159/127 123/149/123 
f 103/127/103 89/108/89 130/165/130 
f 106/130/106 90/109/90 126/157/126 
f 127/159/127 129/161/129 131/166/131 
f 127/159/127 131/166/131 126/167/126 
f 127/159/127 126/167/126 105/158/105 
f 131/166/131 107/168/107 108/169/108 
f 131/166/131 129/161/129 107/168/107 
f 129/161/129 130/163/130 107/168/107 
f 130/165/130 89/108/89 107/131/107 
f 111/170/111 109/171/109 132/172/132 
f 109/133/109 106/130/106 126/157/126 
f 132/172/132 133/173/133 111/170/111 
f 131/166/131 109/171/109 126/167/126 
f 131/166/131 134/174/134 109/171/109 
f 134/174/134 132/172/132 109/171/109 
f 108/169/108 134/174/134 131/166/131 
f 135/175/135 136/176/136 108/169/108 
f 110/177/110 135/175/135 108/169/108 
f 133/178/133 96/115/96 93/112/93 
f 136/176/136 133/173/133 132/172/132 
f 132/172/132 134/174/134 136/176/136 
f 136/176/136 135/175/135 133/173/133 
f 136/176/136 134/174/134 108/169/108 
f 110/177/110 112/179/112 135/175/135 
f 133/173/133 116/180/116 137/181/137 
f 133/178/133 113/137/113 96/115/96 
f 137/182/137 114/138/114 113/183/113 
f 116/180/116 133/173/133 135/175/135 
f 135/175/135 112/179/112 116/180/116 
f 60/74/60 34/41/34 33/40/33 
f 60/74/60 59/73/59 35/45/35 
f 39/51/39 40/80/40 38/49/38 
f 62/76/62 98/118/98 61/75/61 
f 87/106/87 98/118/98 62/76/62 
f 62/76/62 63/77/63 87/106/87 
f 137/182/137 116/140/116 115/139/115 
f 137/181/137 113/184/113 133/173/133 
f 114/138/114 137/182/137 115/139/115 
f 114/138/114 95/117/95 113/183/113 
f 125/155/125 122/152/122 104/141/104 
f 128/160/128 130/163/130 129/161/129 
f 128/160/128 123/149/123 122/148/122 
f 125/164/125 103/162/103 128/160/128 
f 111/135/111 133/178/133 93/112/93 
f 111/135/111 92/111/92 109/133/109 
f 98/118/98 119/144/119 118/143/118 
f 124/185/124 119/144/119 121/151/121 
f 118/143/118 119/144/119 124/185/124 
f 124/153/124 117/150/117 118/186/118 
# 270 faces

